<svg width="32" height="32" viewBox="0 0 32 32" fill="none" xmlns="http://www.w3.org/2000/svg">
<path fill-rule="evenodd" clip-rule="evenodd" d="M19.4094 17.2528C21.2622 17.2529 23.0401 18.0832 24.0769 19.3216C24.6023 19.9492 24.9661 20.7191 24.9978 21.5662C25.03 22.4295 24.713 23.2774 24.0475 24.0238C22.407 25.8633 19.7762 27 16 27C12.2238 27 9.59307 25.8634 7.95251 24.0238C7.28709 23.2774 6.97001 22.4295 7.00223 21.5662C7.03388 20.7192 7.39778 19.9492 7.92306 19.3216C8.95981 18.0832 10.7379 17.2529 12.5906 17.2528H19.4094ZM12.5906 19.2028C11.3052 19.2029 10.108 19.7938 9.47117 20.5545C9.15998 20.9264 9.01265 21.3006 9.00005 21.6369C8.98809 21.9571 9.09355 22.3331 9.46047 22.7447C10.6288 24.0548 12.6444 25.0509 16 25.0509C19.3555 25.0509 21.3703 24.0547 22.5386 22.7447C22.9058 22.333 23.0121 21.9573 23 21.6369C22.9874 21.3006 22.8401 20.9264 22.5288 20.5545C21.8919 19.7938 20.6949 19.2028 19.4094 19.2028H12.5906Z" fill="currentColor"/>
<path fill-rule="evenodd" clip-rule="evenodd" d="M16 5C19.0672 5 21.5455 7.43565 21.5455 10.4302C21.5455 13.4247 19.0672 15.8604 16 15.8604C12.9329 15.8603 10.4545 13.4247 10.4545 10.4302C10.4545 7.43571 12.9329 5.00011 16 5ZM16 6.94907C14.0461 6.94918 12.4532 8.50303 12.4532 10.4302C12.4532 12.3574 14.0461 13.9112 16 13.9113C17.954 13.9113 19.5468 12.3574 19.5468 10.4302C19.5468 8.50297 17.954 6.94907 16 6.94907Z" fill="currentColor"/>
</svg>
