<svg width="24" height="24" viewBox="0 0 24 24" fill="none" xmlns="http://www.w3.org/2000/svg">
<path d="M18.8097 6.23928C18.7816 6.03299 18.6361 5.8633 18.4395 5.80752L12.1373 4.01914C12.0475 3.99362 11.9526 3.99362 11.8627 4.01914L5.5605 5.80752C5.36386 5.8633 5.2184 6.03292 5.19025 6.23928C5.1537 6.50748 4.31981 12.8445 6.45868 15.997C8.59502 19.1457 11.7466 19.9526 11.8797 19.9854C11.9192 19.9952 11.9596 20 12 20C12.0404 20 12.0808 19.9951 12.1203 19.9854C12.2535 19.9526 15.405 19.1457 17.5413 15.997C19.6802 12.8446 18.8463 6.50755 18.8097 6.23928ZM16.0641 9.9389L11.7654 14.3253C11.6654 14.4274 11.5342 14.4785 11.4031 14.4785C11.2719 14.4785 11.1408 14.4274 11.0407 14.3253L8.38288 11.6132C8.28675 11.5152 8.23277 11.3822 8.23277 11.2435C8.23277 11.1048 8.28682 10.9718 8.38288 10.8738L8.91061 10.3353C9.11073 10.1312 9.4352 10.1311 9.63525 10.3353L11.4031 12.1392L14.8117 8.66091C14.9078 8.56282 15.0381 8.50774 15.174 8.50774C15.3099 8.50774 15.4403 8.56282 15.5364 8.66091L16.0641 9.19941C16.2642 9.40361 16.2642 9.7347 16.0641 9.9389Z" fill="#FF423C"/>
</svg>
