<svg width="24" height="24" viewBox="0 0 24 24" fill="none" xmlns="http://www.w3.org/2000/svg">
<path d="M12 2.75C12.3647 2.75 12.7148 2.89448 12.9727 3.15234C13.2305 3.41021 13.375 3.76033 13.375 4.125V10.625H19.875C20.2397 10.625 20.5898 10.7695 20.8477 11.0273C21.1055 11.2852 21.25 11.6353 21.25 12C21.25 12.3647 21.1055 12.7148 20.8477 12.9727C20.5898 13.2305 20.2397 13.375 19.875 13.375H13.375V19.875C13.375 20.2397 13.2305 20.5898 12.9727 20.8477C12.7148 21.1055 12.3647 21.25 12 21.25C11.6353 21.25 11.2852 21.1055 11.0273 20.8477C10.7695 20.5898 10.625 20.2397 10.625 19.875V13.375H4.125C3.76033 13.375 3.41021 13.2305 3.15234 12.9727C2.89448 12.7148 2.75 12.3647 2.75 12C2.75 11.6353 2.89448 11.2852 3.15234 11.0273C3.41021 10.7695 3.76033 10.625 4.125 10.625H10.625V4.125C10.625 3.76033 10.7695 3.41021 11.0273 3.15234C11.2852 2.89448 11.6353 2.75 12 2.75Z" fill="currentColor"/>
</svg>
