<svg width="32" height="32" viewBox="0 0 32 32" fill="none" xmlns="http://www.w3.org/2000/svg">
<path d="M16 15.0833C16.5293 15.0833 16.9583 15.4937 16.9583 16V17.8333H18.875C19.4043 17.8333 19.8333 18.2437 19.8333 18.75C19.8333 19.2563 19.4043 19.6667 18.875 19.6667H16.9583V21.5C16.9583 22.0063 16.5293 22.4167 16 22.4167C15.4707 22.4167 15.0417 22.0063 15.0417 21.5V19.6667H13.125C12.5957 19.6667 12.1667 19.2563 12.1667 18.75C12.1667 18.2437 12.5957 17.8333 13.125 17.8333H15.0417V16C15.0417 15.4937 15.4707 15.0833 16 15.0833Z" fill="currentColor"/>
<path fill-rule="evenodd" clip-rule="evenodd" d="M16 5C17.4021 5 18.8355 5.44601 19.931 6.37735C20.9209 7.21905 21.5888 8.41938 21.7244 9.92441C26.347 10.6824 27.5 12.8867 27.5 18.2917C27.5 25.4629 25.4702 27 16 27C6.52975 27 4.5 25.4629 4.5 18.2917C4.5 12.8867 5.65302 10.6824 10.2755 9.92441C10.4112 8.41938 11.0791 7.21905 12.0691 6.37735C13.1644 5.44601 14.5979 5 16 5ZM16 11.4166C13.6664 11.4166 11.8961 11.5129 10.54 11.7411C9.18499 11.9691 8.38941 12.3062 7.88836 12.6857C6.97622 13.3764 6.41668 14.7008 6.41668 18.2917C6.41668 21.8825 6.97622 23.2069 7.88836 23.8976C8.38941 24.277 9.18499 24.6142 10.54 24.8422C11.8961 25.0704 13.6664 25.1667 16 25.1667C18.3337 25.1667 20.104 25.0704 21.4601 24.8422C22.815 24.6142 23.6107 24.277 24.1117 23.8976C25.0238 23.2069 25.5834 21.8825 25.5834 18.2917C25.5834 14.7008 25.0238 13.3764 24.1117 12.6857C23.6107 12.3062 22.815 11.9691 21.4601 11.7411C20.104 11.5129 18.3337 11.4166 16 11.4166ZM16 6.83335C15.0063 6.83335 14.0439 7.15124 13.3424 7.74765C12.8114 8.19916 12.3961 8.83792 12.237 9.69983C13.3374 9.61763 14.5858 9.58331 16 9.58331C17.4142 9.58331 18.6626 9.61763 19.763 9.69983C19.6039 8.83793 19.1887 8.19916 18.6576 7.74765C17.9562 7.1512 16.9937 6.83335 16 6.83335Z" fill="currentColor"/>
</svg>
