<svg width="254" height="235" viewBox="0 0 254 235" fill="none" xmlns="http://www.w3.org/2000/svg">
<g clip-path="url(#clip0_359_241)">
<path d="M134 253.5C84.5 183 251.171 188 166 125.5C80.8275 63 174 60 186 -17.5" stroke="#FF423C" stroke-width="2"/>
<path d="M181.282 141.388C178.372 144.298 174.509 145.994 170.411 146.152C167.62 146.259 165.105 145.617 163.334 143.845L158.053 138.562L152.772 143.845C151.111 145.506 148.798 146.174 146.216 146.163L145.696 146.152C141.597 145.995 137.734 144.298 134.824 141.388C131.916 138.479 130.222 134.619 130.064 130.523C129.957 127.737 130.599 125.225 132.368 123.456L132.654 123.17L132.65 123.166L137.656 118.159L132.368 112.869C130.599 111.1 129.956 108.59 130.063 105.803C130.221 101.707 131.916 97.8469 134.824 94.9381C137.734 92.0273 141.596 90.3319 145.695 90.1741C148.485 90.067 151 90.709 152.772 92.4805L158.053 97.7624L163.334 92.4805C165.105 90.7091 167.619 90.0663 170.41 90.1734C174.508 90.3312 178.372 92.0273 181.282 94.9381C184.19 97.8469 185.884 101.707 186.041 105.802L186.052 106.391C186.052 108.937 185.381 111.226 183.738 112.869L178.446 118.162L183.738 123.456C185.38 125.099 186.053 127.387 186.053 129.934C186.053 130.131 186.049 130.329 186.041 130.523C185.884 134.619 184.19 138.479 181.282 141.388Z" fill="#FAFAFD"/>
<path d="M182.272 111.292C183.42 110.144 184 108.442 184 106.228C184 106.061 183.997 105.89 183.99 105.717C183.852 102.128 182.37 98.7445 179.815 96.1893C177.259 93.6323 173.873 92.1481 170.281 92.01C167.812 91.9151 165.933 92.4946 164.696 93.7321L160.088 98.3418L177.653 115.912L182.272 111.292Z" fill="#FF423C"/>
<path d="M133.729 124.708C132.494 125.943 131.916 127.819 132.01 130.283C132.148 133.872 133.631 137.255 136.186 139.811C138.742 142.368 142.128 143.852 145.72 143.99C148.189 144.085 150.068 143.505 151.305 142.268L155.913 137.658L138.348 120.088L133.729 124.708Z" fill="#FF423C"/>
<path d="M136.186 96.1892C133.631 98.7443 132.148 102.128 132.011 105.717C131.916 108.181 132.494 110.057 133.729 111.292L164.696 142.268C165.933 143.505 167.812 144.085 170.281 143.99C173.873 143.852 177.259 142.367 179.815 139.811C182.37 137.255 183.853 133.872 183.99 130.283C183.997 130.11 184 129.939 184 129.771C184 127.558 183.42 125.856 182.272 124.708L151.305 93.732C150.068 92.4944 148.189 91.915 145.72 92.0099C142.128 92.148 138.742 93.6322 136.186 96.1892ZM153.032 122.97C152.483 122.421 152.483 121.531 153.032 120.982C153.581 120.433 154.471 120.433 155.019 120.982C155.568 121.531 155.568 122.421 155.019 122.97C154.471 123.519 153.581 123.519 153.032 122.97ZM160.982 122.97C160.433 122.421 160.433 121.531 160.982 120.982C161.531 120.433 162.42 120.433 162.969 120.982C163.518 121.531 163.518 122.421 162.969 122.97C162.42 123.519 161.531 123.519 160.982 122.97ZM157.007 126.946C156.458 126.397 156.458 125.507 157.007 124.958C157.556 124.409 158.446 124.409 158.994 124.958C159.543 125.507 159.543 126.397 158.994 126.946C158.446 127.495 157.556 127.495 157.007 126.946ZM166.944 117.006C167.493 117.555 167.493 118.445 166.944 118.994C166.395 119.543 165.505 119.543 164.957 118.994C164.408 118.445 164.408 117.555 164.957 117.006C165.506 116.457 166.395 116.457 166.944 117.006ZM158.994 117.006C159.543 117.555 159.543 118.445 158.994 118.994C158.445 119.543 157.556 119.543 157.007 118.994C156.458 118.445 156.458 117.555 157.007 117.006C157.556 116.457 158.445 116.457 158.994 117.006ZM151.044 117.006C151.593 117.555 151.593 118.445 151.044 118.994C150.495 119.543 149.606 119.543 149.057 118.994C148.508 118.445 148.508 117.555 149.057 117.006C149.606 116.457 150.495 116.457 151.044 117.006ZM162.969 113.03C163.518 113.579 163.518 114.469 162.969 115.018C162.42 115.567 161.53 115.567 160.982 115.018C160.433 114.469 160.433 113.579 160.982 113.03C161.53 112.481 162.42 112.481 162.969 113.03ZM155.019 113.03C155.568 113.579 155.568 114.469 155.019 115.018C154.47 115.567 153.58 115.567 153.032 115.018C152.483 114.469 152.483 113.579 153.032 113.03C153.58 112.481 154.47 112.481 155.019 113.03ZM158.994 109.054C159.543 109.603 159.543 110.493 158.994 111.042C158.445 111.591 157.555 111.591 157.006 111.042C156.458 110.493 156.458 109.603 157.006 109.054C157.555 108.505 158.445 108.505 158.994 109.054Z" fill="#FF423C"/>
</g>
<defs>
<clipPath id="clip0_359_241">
<rect width="254" height="235" fill="white"/>
</clipPath>
</defs>
</svg>
