<svg width="32" height="32" viewBox="0 0 32 32" fill="none" xmlns="http://www.w3.org/2000/svg">
<path fill-rule="evenodd" clip-rule="evenodd" d="M16 5C17.4021 5 18.8352 5.44635 19.9307 6.37769C20.9206 7.21939 21.5892 8.41937 21.7248 9.9244C26.3471 10.6825 27.5 12.8869 27.5 18.2917C27.5 25.4629 25.4702 27 16 27C6.52976 27 4.5 25.4629 4.5 18.2917C4.5 12.8869 5.65295 10.6825 10.2752 9.9244C10.4108 8.41938 11.0794 7.21939 12.0693 6.37769C13.1647 5.44634 14.5979 5 16 5ZM16 15.0833C15.4707 15.0833 15.0414 15.4937 15.0414 16V17.8333H13.125C12.5957 17.8333 12.1664 18.2437 12.1664 18.75C12.1664 19.2563 12.5957 19.6667 13.125 19.6667H15.0414V21.5C15.0414 22.0063 15.4707 22.4167 16 22.4167C16.5291 22.4165 16.9577 22.0062 16.9577 21.5V19.6667H18.875C19.4041 19.6665 19.8327 19.2562 19.8327 18.75C19.8327 18.2438 19.4041 17.8335 18.875 17.8333H16.9577V16C16.9577 15.4938 16.5291 15.0835 16 15.0833ZM16 6.83333C15.0064 6.83333 14.0439 7.151 13.3424 7.74731C12.8114 8.1988 12.3964 8.83789 12.2373 9.69971C13.3377 9.61752 14.5859 9.58333 16 9.58333C17.4141 9.58333 18.6623 9.61752 19.7627 9.69971C19.6036 8.83789 19.1886 8.19879 18.6576 7.74731C17.9562 7.15096 16.9936 6.83333 16 6.83333Z" fill="currentColor"/>
</svg>
