<svg width="24" height="24" viewBox="0 0 24 24" fill="none" xmlns="http://www.w3.org/2000/svg">
<path d="M4.10734 14.1477C3.81476 13.424 4.14245 12.5879 4.82123 12.276C5.50001 11.964 6.28412 12.3134 6.5767 13.0371C7.25548 14.7467 8.58964 16.1068 10.2398 16.7557C12.0889 17.4919 14.0316 17.1799 15.4594 15.9321C16.8169 14.7467 17.5191 12.8749 17.2851 11.0656C17.0744 9.3935 16.2318 7.98346 15.0381 7.30964C13.8795 6.64829 12.1006 6.66077 11.1292 7.8462C10.2047 8.98172 10.1462 10.9034 10.9888 11.9765C11.2931 12.3508 11.8548 12.5006 12.358 12.3134C12.756 12.1761 12.9549 11.5772 12.9783 11.0905C13.0134 10.3044 13.6337 9.69298 14.371 9.73041C15.1083 9.76785 15.6817 10.4292 15.6466 11.2153C15.5647 13.0247 14.605 14.5096 13.2007 15.0087C11.6676 15.5577 9.9472 15.0711 8.94073 13.8108C7.24378 11.677 7.314 8.15815 9.10458 5.96199C9.95891 4.91381 11.1877 4.22751 12.5687 4.05281C13.8443 3.87812 15.1668 4.14016 16.2903 4.78903C18.233 5.89959 19.5906 8.10824 19.93 10.6788C20.2928 13.4614 19.2278 16.3189 17.1563 18.1283C15.752 19.3636 14.0199 20 12.2293 20C11.258 20 10.2632 19.8128 9.30353 19.426C6.96291 18.5026 5.0787 16.581 4.10734 14.1477Z" fill="currentColor"/>
</svg>
