<svg width="24" height="24" viewBox="0 0 24 24" fill="none" xmlns="http://www.w3.org/2000/svg">
<path d="M15.5403 3C15.5832 3 15.626 3 15.6712 3C15.7763 4.2694 15.281 5.21789 14.6791 5.90476C14.0885 6.58688 13.2798 7.24845 11.9717 7.14807C11.8845 5.89685 12.3805 5.01871 12.9816 4.33342C13.5391 3.69477 14.5611 3.12647 15.5403 3Z" fill="currentColor"/>
<path d="M19.5 16.2125C19.5 16.2251 19.5 16.2362 19.5 16.2481C19.1324 17.3372 18.608 18.2707 17.9682 19.137C17.384 19.9235 16.6682 20.9818 15.3901 20.9818C14.2856 20.9818 13.552 20.2871 12.4201 20.2681C11.2228 20.2491 10.5643 20.849 9.46957 21C9.34434 21 9.21911 21 9.0963 21C8.29242 20.8862 7.64365 20.2633 7.17101 19.7021C5.77733 18.0439 4.70037 15.9019 4.5 13.1607C4.5 12.892 4.5 12.624 4.5 12.3553C4.58483 10.3935 5.55919 8.79845 6.8543 8.02542C7.53781 7.61441 8.47743 7.26426 9.5237 7.42076C9.9721 7.48874 10.4302 7.63891 10.8317 7.78751C11.2123 7.93058 11.6881 8.1843 12.139 8.17086C12.4444 8.16217 12.7481 8.00645 13.056 7.89659C13.9576 7.57805 14.8415 7.21288 16.0065 7.3844C17.4067 7.59149 18.4004 8.20011 19.0144 9.13911C17.83 9.87656 16.8936 10.9879 17.0536 12.8857C17.1958 14.6095 18.2202 15.6181 19.5 16.2125Z" fill="currentColor"/>
</svg>
