<svg width="16" height="16" viewBox="0 0 16 16" fill="none" xmlns="http://www.w3.org/2000/svg">
<path d="M4.81381 9.59874C5.02276 9.59874 5.19213 9.43086 5.19213 9.22374V3.19119C5.19213 2.94793 5.3918 2.75 5.63721 2.75H5.94335L6.21742 3.58613C6.26807 3.74063 6.41332 3.84526 6.57723 3.84526H9.60012C9.76403 3.84526 9.90928 3.74066 9.95993 3.58613L10.234 2.75H10.5401C10.7075 2.75 10.8594 2.84279 10.9368 2.99216C11.0321 3.17642 11.2602 3.24917 11.4461 3.1546C11.632 3.06005 11.7054 2.83405 11.61 2.64976C11.4025 2.24898 10.9926 2 10.5401 2H5.63721C4.97457 2 4.43548 2.53435 4.43548 3.19119V9.22374C4.43548 9.43086 4.60486 9.59874 4.81381 9.59874ZM9.32524 3.09523H6.85211L6.73894 2.75H9.43841L9.32524 3.09523ZM7.49753 12.0166C7.49753 11.6939 7.76309 11.4307 8.08866 11.4307C8.41423 11.4307 8.67979 11.6939 8.67979 12.0166C8.67979 12.3394 8.41423 12.6026 8.08866 12.6026C7.76309 12.6026 7.49753 12.3394 7.49753 12.0166ZM13.8892 2.2153C13.7414 2.06886 13.5019 2.06886 13.3541 2.2153L4.54643 10.9456C4.54636 10.9457 4.54626 10.9458 4.54617 10.9459L2.11082 13.3599C1.96306 13.5063 1.96306 13.7437 2.11082 13.8902C2.18469 13.9634 2.28149 14 2.37832 14C2.47515 14 2.57195 13.9634 2.64582 13.8901L4.43548 12.1162V12.8088C4.43548 13.4656 4.97457 14 5.63721 14H10.5401C11.2028 14 11.7419 13.4656 11.7419 12.8088V4.87407L13.8892 2.74562C14.0369 2.59918 14.0369 2.36173 13.8892 2.2153ZM10.9852 12.8088C10.9852 13.0521 10.7856 13.25 10.5401 13.25H5.63721C5.3918 13.25 5.19213 13.0521 5.19213 12.8088V11.3662L10.9852 5.62407V12.8088Z" fill="black"/>
</svg>
