<svg width="17" height="16" viewBox="0 0 17 16" fill="none" xmlns="http://www.w3.org/2000/svg">
<path d="M1.02178 9.3095C1.09134 9.32188 1.16174 9.3276 1.23217 9.3266L13.2253 9.3266L12.9638 9.46009C12.7082 9.59286 12.4757 9.77357 12.2766 9.99403L8.91341 13.6849C8.47047 14.149 8.39604 14.8955 8.73704 15.4536C9.13391 16.0485 9.895 16.1776 10.437 15.7421C10.4808 15.7069 10.5224 15.6685 10.5616 15.6272L16.6433 8.95284C17.1185 8.43182 17.119 7.58664 16.6442 7.06504C16.6439 7.06471 16.6436 7.06433 16.6433 7.064L10.5616 0.389653C10.0859 -0.130904 9.31575 -0.129737 8.84138 0.39228C8.80405 0.433369 8.7692 0.477085 8.73704 0.523138C8.39605 1.08132 8.47047 1.82781 8.91341 2.29184L12.2705 5.98943C12.449 6.18549 12.6542 6.34988 12.8787 6.47665L13.2436 6.65686L1.29911 6.65686C0.67775 6.63154 0.1326 7.10788 0.0158699 7.77815C-0.0916627 8.50586 0.358689 9.19144 1.02178 9.3095Z" fill="#FF423C"/>
</svg>
