<svg width="11" height="10" viewBox="0 0 11 10" fill="none" xmlns="http://www.w3.org/2000/svg">
<path d="M0.661154 5.81843C0.706163 5.82618 0.751713 5.82975 0.797288 5.82912L8.55757 5.82912L8.38836 5.91255C8.22296 5.99554 8.07248 6.10848 7.94368 6.24627L5.7675 8.55309C5.48089 8.84311 5.43273 9.30966 5.65338 9.65853C5.91018 10.0303 6.40264 10.111 6.75337 9.83879C6.7817 9.81678 6.80864 9.7928 6.83394 9.76699L10.7692 5.59552C11.0767 5.26989 11.077 4.74165 10.7698 4.41565C10.7696 4.41544 10.7694 4.41521 10.7692 4.415L6.83395 0.243534C6.52616 -0.0818152 6.02784 -0.0810847 5.72089 0.245176C5.69674 0.270856 5.67419 0.298179 5.65338 0.326962C5.43274 0.675827 5.48089 1.14238 5.7675 1.4324L7.93974 3.74339C8.05522 3.86593 8.18798 3.96868 8.33327 4.04791L8.56938 4.16054L0.840601 4.16054C0.438543 4.14471 0.0857997 4.44242 0.0102677 4.86134C-0.0593124 5.31616 0.232091 5.74465 0.661154 5.81843Z" fill="#FF423C"/>
</svg>
