<svg width="24" height="24" viewBox="0 0 24 24" fill="none" xmlns="http://www.w3.org/2000/svg">
<path d="M19.4782 10.6905C19.4087 10.6781 19.3383 10.6724 19.2678 10.6734H7.27466L7.53617 10.5399C7.7918 10.4071 8.02434 10.2264 8.22341 10.006L11.5866 6.31505C12.0295 5.85102 12.104 5.10454 11.763 4.54635C11.3661 3.95154 10.605 3.82239 10.063 4.25794C10.0192 4.29314 9.97756 4.33152 9.93845 4.37282L3.85674 11.0472C3.38145 11.5682 3.38104 12.4134 3.85579 12.935C3.85609 12.9353 3.85644 12.9357 3.85674 12.936L9.93845 19.6103C10.4141 20.1309 11.1842 20.1297 11.6586 19.6077C11.6959 19.5666 11.7308 19.5229 11.763 19.4769C12.104 18.9187 12.0295 18.1722 11.5866 17.7082L8.22949 14.0106C8.05103 13.8145 7.84585 13.6501 7.62132 13.5233L7.25641 13.3431H19.2009C19.8223 13.3685 20.3674 12.8921 20.4841 12.2218C20.5917 11.4941 20.1413 10.8086 19.4782 10.6905Z" fill="black"/>
</svg>
