<svg width="24" height="24" viewBox="0 0 24 24" fill="none" xmlns="http://www.w3.org/2000/svg">
<path d="M10.8411 8.15865C10.6241 7.87385 10.4352 7.64567 10.2795 7.48045C10.0581 7.24561 9.87495 7.10006 9.64611 7.10006C9.41727 7.10006 9.23411 7.24561 9.01276 7.48042C8.85703 7.64564 8.66805 7.87382 8.4511 8.15865C7.99312 8.75981 7.47942 9.52148 7.00461 10.3032C6.25594 11.536 5 13.8226 5 15.2873C5 17.8859 7.08422 20 9.64608 20C12.2079 20 14.2922 17.8859 14.2922 15.2873C14.2922 13.8226 13.0362 11.536 12.2875 10.3032C11.8128 9.52148 11.2991 8.75984 10.8411 8.15865Z" fill="currentColor"/>
<path d="M17.9027 5.80644C17.6466 5.38468 17.369 4.97321 17.1212 4.64784C16.7383 4.14531 16.5574 4 16.3148 4C16.0721 4 15.8912 4.14531 15.5084 4.64784C15.2605 4.97321 14.983 5.38465 14.7268 5.80644C14.2263 6.63066 13.6296 7.77916 13.6296 8.56983C13.6296 10.0717 14.8342 11.2936 16.3148 11.2936C17.7954 11.2936 19 10.0717 19 8.56983C19 7.77913 18.4033 6.63066 17.9027 5.80644Z" fill="currentColor"/>
</svg>
