<svg width="24" height="24" viewBox="0 0 24 24" fill="none" xmlns="http://www.w3.org/2000/svg">
<path d="M17.3408 9.83178C17.2884 9.77096 17.2248 9.78291 17.1915 9.79532C17.1636 9.8058 17.0996 9.83927 17.1084 9.92315C17.1191 10.0239 17.125 10.1266 17.1262 10.2284C17.1309 10.6509 16.9478 11.0648 16.6239 11.3641C16.3019 11.6613 15.8785 11.8215 15.4277 11.8169C14.8119 11.8096 14.3011 11.5123 13.9506 10.9571C13.6608 10.498 13.7881 9.90582 13.923 9.27888C14.0019 8.91192 14.0836 8.53245 14.0836 8.17129C14.0836 5.35919 12.0412 3.7368 10.8238 3.02C10.7986 3.0052 10.7746 3 10.7534 3C10.7189 3 10.6915 3.01378 10.678 3.02222C10.6519 3.0386 10.6101 3.07594 10.6235 3.14203C11.0889 5.42936 9.7009 6.80505 8.23143 8.2615C6.71676 9.76277 5 11.4644 5 14.5332C5 18.099 8.13405 21 11.9863 21C15.1582 21 17.9547 18.9531 18.787 16.0222C19.3545 14.0239 18.7598 11.4783 17.3408 9.83178ZM12.1606 19.6197C11.196 19.6604 10.2786 19.3401 9.57792 18.72C8.88473 18.1064 8.48715 17.2502 8.48715 16.3708C8.48715 14.7206 9.16883 13.5091 11.0023 11.9008C11.0323 11.8744 11.063 11.8661 11.0898 11.8661C11.1141 11.8661 11.1351 11.8729 11.1496 11.8794C11.1801 11.893 11.2302 11.9267 11.2235 11.9995C11.1579 12.7056 11.1591 13.2917 11.2268 13.7416C11.4 14.8906 12.3088 15.6627 13.4882 15.6627C14.0665 15.6627 14.6174 15.4613 15.0393 15.0955C15.0883 15.053 15.143 15.0584 15.1639 15.0625C15.1917 15.0681 15.2289 15.0838 15.2483 15.1273C15.4233 15.5183 15.5127 15.9333 15.5141 16.3608C15.5196 18.0808 14.0153 19.5427 12.1606 19.6197Z" fill="currentColor"/>
</svg>
