<svg width="24" height="24" viewBox="0 0 24 24" fill="none" xmlns="http://www.w3.org/2000/svg">
<path d="M15.7714 11.8076L13.4286 9.88316C12.8571 9.4433 12.5714 8.7835 12.5714 8.12371V4.54983C12.5714 4.21993 12.3429 4 12 4C11.6571 4 11.4286 4.21993 11.4286 4.54983V8.17869C11.4286 8.83849 11.1429 9.49828 10.5714 9.93814L8.22857 11.8625C8 12.0825 7.94286 12.4124 8.17143 12.6323C8.22857 12.7423 8.4 12.7973 8.57143 12.7973C8.68571 12.7973 8.85714 12.7423 8.91429 12.6873L11.2571 10.7629C11.5429 10.543 11.7714 10.268 11.9429 9.99313C12.1143 10.268 12.3429 10.543 12.6286 10.7629L14.9714 12.6873C15.0857 12.7973 15.2 12.7973 15.3143 12.7973C15.4857 12.7973 15.6571 12.7423 15.7714 12.5773C16.0571 12.3574 16.0571 12.0275 15.7714 11.8076Z" fill="currentColor"/>
<path d="M11.4286 13.3471L11.3143 12.1924L9.65714 13.512C8.97143 14.0619 7.82857 13.9519 7.25714 13.2921C6.97143 12.9622 6.8 12.5223 6.85714 12.0825C6.91429 11.6426 7.14286 11.2577 7.48571 10.9828L9.82857 9.05842C10.1143 8.83849 10.2857 8.50859 10.2857 8.12371V6.47423C10 6.30928 9.71429 6.19931 9.31429 6.19931C6.97143 6.19931 4 11.0928 4 16.3162C4 18.4055 4.28571 19.3952 4.97143 19.7801C5.14286 19.89 5.31429 19.945 5.48571 19.945C5.94286 19.945 6.45714 19.6701 6.85714 19.4502C7.25714 19.2302 7.65714 19.0103 7.94286 19.0103C10.1714 19.0103 11.3714 18.2955 11.3714 14.4467C11.3714 13.9519 11.3714 13.8969 11.3714 13.732C11.4286 13.677 11.4286 13.567 11.4286 13.3471Z" fill="currentColor"/>
<path d="M14.7429 6.19931C14.2857 6.19931 14 6.30928 13.7143 6.52921V8.17869C13.7143 8.50859 13.8857 8.83849 14.1714 9.1134L16.5143 11.0378C16.8571 11.3127 17.0857 11.6976 17.1429 12.1375C17.2 12.5773 17.0286 13.0172 16.7429 13.3471C16.4 13.677 15.9429 13.8969 15.4286 13.8969C15.0286 13.8969 14.6286 13.7869 14.3429 13.512L12.6857 12.1924L12.5714 13.3471V14.5017C12.5714 18.2955 13.7714 19.0653 16 19.0653C16.2857 19.0653 16.7429 19.2852 17.0857 19.5052C17.5429 19.7251 18 20 18.4571 20C18.6286 20 18.8571 19.945 19.0286 19.8351C19.7143 19.4502 20 18.4605 20 16.3711C20 11.0928 17.0286 6.19931 14.7429 6.19931Z" fill="currentColor"/>
</svg>
