<svg width="16" height="16" viewBox="0 0 16 16" fill="none" xmlns="http://www.w3.org/2000/svg">
<path d="M15.371 4.88584C14.5586 2.96802 13.032 1.44143 11.1142 0.628973C10.1284 0.213849 9.0696 0 8 0C6.9304 0 5.8716 0.213849 4.88584 0.628973C2.96802 1.44143 1.44143 2.96802 0.628973 4.88584C0.213849 5.8716 0 6.9304 0 8C0 9.0696 0.213849 10.1284 0.628973 11.1142C1.44143 13.032 2.96802 14.5586 4.88584 15.371C5.8716 15.7862 6.9304 16 8 16C9.0696 16 10.1284 15.7862 11.1142 15.371C13.032 14.5586 14.5586 13.032 15.371 11.1142C15.7862 10.1284 16 9.0696 16 8C16 6.9304 15.7862 5.8716 15.371 4.88584ZM8 14.5454C4.39085 14.5454 1.45464 11.6092 1.45464 8C1.45464 4.39085 4.39085 1.45464 8 1.45464C11.6092 1.45464 14.5454 4.39085 14.5454 8C14.5454 11.6092 11.6092 14.5454 8 14.5454Z" fill="white"/>
<path d="M8.72715 7.69864V3.63643C8.72715 3.44358 8.65054 3.25862 8.51417 3.12226C8.3778 2.98589 8.19285 2.90928 8 2.90928C7.80715 2.90928 7.6222 2.98589 7.48583 3.12226C7.34946 3.25862 7.27285 3.44358 7.27285 3.63643V8C7.27278 8.0955 7.29157 8.19006 7.32813 8.27828C7.36469 8.3665 7.41831 8.44663 7.48592 8.51408L9.6677 10.6959C9.73515 10.7638 9.81534 10.8177 9.90367 10.8545C9.99199 10.8913 10.0867 10.9104 10.1824 10.9105C10.2781 10.9107 10.3729 10.8919 10.4613 10.8554C10.5498 10.8188 10.6301 10.7651 10.6978 10.6975C10.7655 10.6298 10.8191 10.5494 10.8556 10.4609C10.8921 10.3725 10.9109 10.2777 10.9107 10.182C10.9105 10.0863 10.8914 9.99159 10.8546 9.90327C10.8177 9.81496 10.7638 9.73479 10.6959 9.66736L8.72715 7.69864Z" fill="white"/>
</svg>
