<svg width="24" height="24" viewBox="0 0 24 24" fill="none" xmlns="http://www.w3.org/2000/svg">
<path d="M20.8119 7.99902C20.5121 6.839 19.8731 5.83874 18.964 5.10636C18.0783 4.39295 16.9934 4 15.9091 4C15.0777 4 14.2847 4.22087 13.5521 4.65636C12.9735 5.0004 12.453 5.46828 11.9985 6.05229C10.9645 4.72262 9.59946 4 8.08966 4C7.00572 4 5.92123 4.39295 5.03573 5.10636C4.12688 5.83874 3.48803 6.83886 3.18824 7.99888C2.96837 8.84969 2.86826 10.0437 3.30208 11.4797H6.02629L7.00998 9.53844C7.09938 9.36215 7.28189 9.25077 7.48157 9.25077C7.68138 9.25077 7.86389 9.36215 7.95316 9.53844L9.74064 13.0656L11.5281 9.53844C11.6174 9.36215 11.7999 9.25077 11.9997 9.25077C12.1994 9.25077 12.3819 9.36215 12.4713 9.53844L13.455 11.4797H17.1279C17.4191 11.4797 17.6551 11.7127 17.6551 11.9999C17.6551 12.2873 17.4191 12.5203 17.1279 12.5203H13.1291C12.9294 12.5203 12.7469 12.4089 12.6575 12.2326L11.9997 10.9344L10.2122 14.4616C10.1228 14.6378 9.94032 14.7491 9.74064 14.7491C9.54083 14.7491 9.35831 14.6378 9.26905 14.4616L7.48171 10.9344L6.82376 12.2327C6.73436 12.4089 6.55185 12.5203 6.35217 12.5203H3.69704C3.87324 12.9059 4.08857 13.3051 4.35004 13.7163C5.78541 15.975 8.27382 18.0678 11.7458 19.9365C11.8245 19.9789 11.9114 20 11.9983 20C12.0853 20 12.1721 19.9789 12.2507 19.9366C15.7238 18.0676 18.2129 15.975 19.649 13.7164C21.2005 11.2761 21.1378 9.26039 20.8119 7.99902Z" fill="currentColor"/>
</svg>
