<svg width="24" height="24" viewBox="0 0 24 24" fill="none" xmlns="http://www.w3.org/2000/svg">
<path fill-rule="evenodd" clip-rule="evenodd" d="M10.3472 3C9.70289 3 9.18056 3.53725 9.18056 4.2C9.18056 4.53137 8.91939 4.8 8.59722 4.8H5.875C5.39175 4.8 5 5.20295 5 5.7C5 6.19705 5.39175 6.6 5.875 6.6H18.125C18.6083 6.6 19 6.19705 19 5.7C19 5.20295 18.6083 4.8 18.125 4.8H15.4021C15.0803 4.7996 14.8194 4.53113 14.8194 4.2C14.8194 3.53725 14.2971 3 13.6528 3H10.3472Z" fill="currentColor"/>
<path fill-rule="evenodd" clip-rule="evenodd" d="M6.75 8.4C6.50531 8.4 6.2718 8.50539 6.1061 8.6906C5.94042 8.87581 5.8577 9.12392 5.87803 9.37474L6.55244 17.699C6.70361 19.5649 8.22004 21 10.0403 21H13.9597C15.78 21 17.2964 19.5649 17.4476 17.699L18.1219 9.37474C18.1423 9.12392 18.0596 8.87581 17.8939 8.6906C17.7282 8.50539 17.4947 8.4 17.25 8.4H6.75Z" fill="currentColor"/>
</svg>
