<svg width="24" height="24" viewBox="0 0 24 24" fill="none" xmlns="http://www.w3.org/2000/svg">
<path fill-rule="evenodd" clip-rule="evenodd" d="M12 3C12 3 18.9996 9.20656 19 14.172C19 17.9428 15.8659 21 12 21C8.13403 21 5 17.9428 5 14.172C5.00039 9.20656 12 3 12 3ZM12.0399 10.2004C11.4225 10.2004 10.9212 10.6615 10.9211 11.231V13.2942H8.68571C8.06829 13.2942 7.567 13.7553 7.56689 14.3247C7.5669 14.8942 8.06823 15.3563 8.68571 15.3563H10.9211V17.4185C10.9211 17.988 11.4224 18.4501 12.0399 18.4501C12.657 18.4497 13.1564 17.9878 13.1564 17.4185V15.3563H15.394C16.0112 15.3559 16.5106 14.894 16.5106 14.3247C16.5105 13.7555 16.0111 13.2946 15.394 13.2942H13.1564V11.231C13.1563 10.6617 12.6569 10.2008 12.0399 10.2004Z" fill="currentColor"/>
</svg>
