<svg width="48" height="48" viewBox="0 0 48 48" fill="none" xmlns="http://www.w3.org/2000/svg">
<path d="M25.4955 26.1639C26.5643 26.1639 27.6191 26.3237 28.6165 26.615L25.0932 30.2467C24.289 31.0737 23.8352 32.0935 23.6172 32.945L23.5956 33.0291L23.5788 33.1141L22.763 37.1285L22.743 37.2283L22.7286 37.328C22.4809 39.06 22.9781 40.8796 24.2783 42.2166C24.3936 42.3351 24.5139 42.4463 24.6373 42.5514C23.1074 42.8445 21.4268 43 19.5899 43C13.0487 42.9999 8.49155 41.0364 5.64972 37.8591C4.49719 36.57 3.94812 35.1056 4.00385 33.6146C4.05868 32.1516 4.68854 30.8212 5.59843 29.7371C7.39427 27.5983 10.4744 26.1641 13.6835 26.1639H25.4955Z" fill="black"/>
<path d="M36.7657 22.9972C38.203 21.5195 40.6916 21.5194 42.1288 22.9972L42.9221 23.8573C44.3593 25.3351 44.3593 27.8717 42.9221 29.3495L33.5693 38.9666C33.2476 39.2975 32.8399 39.4963 32.4323 39.6066L28.5708 40.4007C28.378 40.4448 28.3349 40.4667 28.1205 40.4667L27.9242 40.4568C27.7982 40.4438 27.6693 40.4173 27.5412 40.3801C27.5162 40.3728 27.4915 40.3643 27.4667 40.3562C27.4294 40.3439 27.3922 40.3308 27.3553 40.3166C27.3284 40.3062 27.3018 40.295 27.2751 40.2836C27.2366 40.267 27.1983 40.2496 27.1606 40.2308C27.1394 40.2203 27.1182 40.2099 27.0973 40.1987C27.0553 40.1761 27.0144 40.1514 26.9739 40.1261C26.9551 40.1144 26.9362 40.1029 26.9178 40.0906C26.8766 40.0631 26.8367 40.0337 26.7976 40.0032C26.7811 39.9904 26.7639 39.9786 26.7479 39.9653C26.6955 39.9218 26.6448 39.8756 26.5972 39.8267C26.5358 39.7635 26.4786 39.6974 26.4258 39.6288C26.4166 39.617 26.4082 39.6045 26.3993 39.5925C26.3564 39.5344 26.316 39.475 26.2791 39.4136C26.2651 39.3903 26.2522 39.3664 26.2391 39.3427C26.2313 39.3286 26.2233 39.3148 26.2158 39.3006C26.2041 39.2783 26.1931 39.2556 26.1822 39.233C26.1743 39.2168 26.1664 39.2007 26.1589 39.1843C26.1485 39.1614 26.1382 39.1384 26.1285 39.1151C26.1219 39.0992 26.1155 39.0833 26.1093 39.0672C26.099 39.0408 26.0897 39.014 26.0804 38.9872C26.0758 38.9738 26.0712 38.9604 26.0668 38.9468C26.0597 38.9252 26.0524 38.9036 26.046 38.8817C26.0265 38.8156 26.0099 38.7484 25.9963 38.6805C25.9923 38.6605 25.9886 38.6404 25.9851 38.6203C25.9817 38.6011 25.9783 38.5819 25.9754 38.5625C25.9718 38.5385 25.9687 38.5142 25.9658 38.49C25.9635 38.4702 25.9613 38.4504 25.9594 38.4306C25.9572 38.4076 25.9553 38.3845 25.9538 38.3613C25.9523 38.3389 25.9515 38.3163 25.9506 38.2937C25.9485 38.239 25.9492 38.184 25.9506 38.1288C25.952 38.0727 25.9543 38.0163 25.9594 37.9597C25.9636 37.9132 25.9688 37.8663 25.9754 37.8195L26.7904 33.8051C26.8153 33.7076 26.8461 33.6087 26.8825 33.5107C26.8852 33.5036 26.8878 33.4964 26.8905 33.4893L26.9298 33.3911C26.9348 33.3792 26.9406 33.3676 26.9458 33.3557C26.9541 33.3366 26.9627 33.3177 26.9715 33.2988C26.9835 33.2728 26.9955 33.2469 27.0083 33.2213C27.0206 33.1966 27.033 33.1721 27.046 33.1479C27.0598 33.1221 27.0754 33.0973 27.09 33.072C27.0978 33.0587 27.1045 33.0448 27.1125 33.0316L27.1349 32.9953C27.1457 32.9782 27.1575 32.9618 27.1686 32.945C27.2424 32.8334 27.3233 32.7288 27.413 32.6366L36.7657 22.9972Z" fill="black"/>
<path d="M19.5899 5C24.9027 5.00025 29.1959 9.20735 29.1959 14.3796C29.1958 19.5518 24.9026 23.759 19.5899 23.7592C14.2771 23.759 9.98403 19.5518 9.98394 14.3796C9.98394 9.20731 14.277 5.00019 19.5899 5Z" fill="black"/>
</svg>
