<svg width="24" height="24" viewBox="0 0 24 24" fill="none" xmlns="http://www.w3.org/2000/svg">
<path d="M12 14.6258C13.5046 14.6258 14.7242 13.4502 14.7242 12C14.7242 10.5498 13.5046 9.37418 12 9.37418C10.4954 9.37418 9.27575 10.5498 9.27575 12C9.27575 13.4502 10.4954 14.6258 12 14.6258Z" fill="currentColor"/>
<path d="M21.77 11.2775C19.4274 7.93363 15.7137 5.97575 12 6.00023C8.28629 5.97575 4.57257 7.93363 2.22997 11.2775C2.0801 11.4907 2 11.7424 2 12C2 12.2576 2.0801 12.5093 2.22997 12.7225C4.57257 16.0664 8.28629 18.0242 12 17.9998C15.7137 18.0242 19.4274 16.0664 21.77 12.7225C21.9199 12.5093 22 12.2576 22 12C22 11.7424 21.9199 11.4907 21.77 11.2775ZM12 16.0566C11.1676 16.0566 10.3539 15.8187 9.6618 15.3729C8.9697 14.9272 8.43026 14.2936 8.11172 13.5524C7.79318 12.8111 7.70984 11.9955 7.87223 11.2086C8.03462 10.4217 8.43545 9.69889 9.02404 9.13157C9.61263 8.56424 10.3625 8.17789 11.1789 8.02137C11.9953 7.86485 12.8415 7.94518 13.6106 8.25221C14.3796 8.55924 15.0369 9.07919 15.4994 9.74629C15.9618 10.4134 16.2086 11.1977 16.2086 12C16.2086 13.0759 15.7652 14.1077 14.976 14.8684C14.1867 15.6292 13.1162 16.0566 12 16.0566Z" fill="currentColor"/>
</svg>
