<svg width="24" height="24" viewBox="0 0 24 24" fill="none" xmlns="http://www.w3.org/2000/svg">
<path d="M5.60386 5.21442L5.60112 5.21135C5.53187 5.14395 5.44977 5.0906 5.3595 5.05434C5.26923 5.01808 5.17257 4.99961 5.07503 5.00001C4.97749 5.0004 4.88098 5.01964 4.79102 5.05662C4.70106 5.09361 4.6194 5.14762 4.55071 5.21557C4.48203 5.28351 4.42765 5.36407 4.39069 5.45264C4.35373 5.54121 4.33492 5.63605 4.33532 5.73176C4.33612 5.92504 4.41515 6.11009 4.55501 6.2462L5.67495 7.34506C4.31677 8.25774 3.14771 9.41532 2.22997 10.7562C2.0801 10.9733 2 11.2295 2 11.4917C2 11.7539 2.0801 12.0101 2.22997 12.2272C4.57259 15.6292 8.28633 17.6223 12.0001 17.5973C13.203 17.6016 14.3979 17.4051 15.5337 17.0163L17.3466 18.7951C17.4863 18.9277 17.6735 19.0013 17.8678 19C18.0622 18.9987 18.2483 18.9226 18.3861 18.7881C18.524 18.6537 18.6025 18.4715 18.6049 18.2808C18.6073 18.0901 18.5334 17.9061 18.399 17.7683L5.60386 5.21442ZM12.0001 15.6193C11.2965 15.619 10.6041 15.4457 9.98637 15.1153C9.3686 14.7848 8.84508 14.3077 8.46367 13.7276C8.08225 13.1475 7.8551 12.4828 7.80296 11.7944C7.75083 11.1059 7.87538 10.4156 8.16523 9.78653L9.33518 10.9344C9.24094 11.3702 9.25915 11.8221 9.38815 12.2491C9.51715 12.6762 9.75286 13.0648 10.0739 13.3798C10.3949 13.6947 10.791 13.926 11.2262 14.0526C11.6614 14.1791 12.122 14.197 12.5661 14.1045L13.736 15.2525C13.1907 15.495 12.5988 15.6201 12.0001 15.6193Z" fill="currentColor"/>
<path d="M21.7702 10.7543C19.4275 7.35042 15.7138 5.35738 12.0001 5.38229C10.7971 5.37802 9.6022 5.5745 8.46641 5.96334L10.2633 7.72642C11.043 7.3802 11.9118 7.27536 12.7538 7.42587C13.5958 7.57639 14.3711 7.97511 14.9762 8.56891C15.5814 9.1627 15.9878 9.92335 16.1412 10.7495C16.2946 11.5756 16.1878 12.4281 15.8349 13.1931L18.3248 15.6361C19.6832 14.7236 20.8524 13.566 21.7702 12.2249C21.9199 12.0079 22 11.7518 22 11.4896C22 11.2275 21.9199 10.9714 21.7702 10.7543Z" fill="currentColor"/>
<path d="M12.0001 8.81684C11.8098 8.81686 11.6201 8.83639 11.434 8.8751L14.665 12.0448C14.7492 11.6554 14.7437 11.2524 14.6489 10.8653C14.5541 10.4782 14.3724 10.1167 14.117 9.80736C13.8616 9.498 13.539 9.24852 13.1727 9.07715C12.8065 8.90578 12.4058 8.81684 12.0001 8.81684Z" fill="currentColor"/>
</svg>
