<svg width="24" height="24" viewBox="0 0 24 24" fill="none" xmlns="http://www.w3.org/2000/svg">
<path d="M19.3865 7.81429C18.8124 5.74417 16.4985 5.29706 15.0804 5.57412L9.52911 6.79606C9.41258 6.8235 9.30881 6.88893 9.23458 6.98179C9.16034 7.07465 9.11996 7.18951 9.11996 7.30783C9.11996 7.42614 9.16035 7.54101 9.23459 7.63386C9.30883 7.72672 9.4126 7.79215 9.52913 7.81958C11.2055 8.20307 12.9461 9.61803 13.6183 10.2078C14.0057 10.5542 14.1894 10.9944 14.6279 11.2948C17.0777 13.0833 20.1291 10.5609 19.3865 7.81429Z" fill="currentColor"/>
<path d="M16.7782 13.9158L13.6879 12.2892C13.588 12.2388 13.4752 12.2184 13.3637 12.2308C13.2521 12.2431 13.1467 12.2875 13.0605 12.3585C12.9743 12.4296 12.9112 12.524 12.879 12.6302C12.8467 12.7364 12.8468 12.8496 12.8792 12.9557L13.4067 14.6087C13.5145 14.8805 13.5694 15.8744 13.6076 16.2247C13.6819 17.7016 15.0953 18.9249 16.5426 18.3589C18.6696 17.6515 18.7492 14.9089 16.7782 13.9158Z" fill="currentColor"/>
<path d="M10.3137 12.8156C7.47248 10.5199 6.46559 8.54689 6.22458 7.99414C6.17762 7.89385 6.09894 7.81134 6.00038 7.75906C5.90182 7.70677 5.78872 7.68754 5.67814 7.70425C5.56755 7.72097 5.46545 7.77273 5.38723 7.85173C5.30902 7.93073 5.25892 8.0327 5.24448 8.14227C5.24177 8.18985 4.49708 14.6651 4.50001 14.7091C4.58838 15.9999 5.03559 16.9705 5.82825 17.592C7.51189 18.7942 9.66434 18.5066 10.8225 17.1477C11.3214 16.5008 11.5471 15.6881 11.4523 14.8804C11.3574 14.0726 10.9493 13.3325 10.3137 12.8156Z" fill="currentColor"/>
</svg>
