<svg width="24" height="24" viewBox="0 0 24 24" fill="none" xmlns="http://www.w3.org/2000/svg">
<path fill-rule="evenodd" clip-rule="evenodd" d="M6.89771 18.9968C6.59165 19.0667 5.86877 19.2002 5.17572 19.0957C4.53611 18.9992 3.92569 18.7028 3.65047 18.0067C3.47877 17.5722 3.46494 17.2295 3.55396 16.9513C3.6867 16.5367 4.0554 16.2556 4.53864 16.0325C5.25957 15.6997 6.24422 15.4906 6.91111 15.0049C7.81681 14.3453 7.99909 13.5506 8.15452 13.0242C8.23443 12.7535 8.31717 12.5461 8.44816 12.43C8.5592 12.3317 8.78637 12.2855 9.03266 12.3274C9.37549 12.3857 9.74145 12.603 9.82827 12.9505C9.86028 13.0789 9.9749 13.1999 10.1155 13.3027C10.3438 13.4696 10.6485 13.5862 10.8726 13.5642C10.9205 13.5595 10.9601 13.566 10.9866 13.5695C11.0854 13.5825 11.2921 13.5085 11.1381 13.8379C11.1024 13.9143 11.0383 14.0487 10.9328 14.2296C10.7206 14.5936 10.4023 15.1925 10.4321 16.0015C10.467 16.9463 10.8257 18.0316 10.9056 18.9354C10.9577 19.5254 10.8901 20.042 10.5832 20.4142C10.3753 20.6665 10.0569 20.8571 9.58035 20.954C8.55689 21.1621 7.8674 20.63 7.43628 20.0401C7.14401 19.6401 6.97353 19.2152 6.89771 18.9968Z" fill="currentColor"/>
<path fill-rule="evenodd" clip-rule="evenodd" d="M17.9437 5.62522C18.2604 5.65865 18.9447 5.76328 19.5189 6.07371C20.0653 6.369 20.5112 6.84494 20.4998 7.59802C20.4911 8.17364 20.3249 8.56656 20.0618 8.8422C19.8012 9.115 19.4407 9.27372 19.0241 9.37053C18.2565 9.54905 17.2899 9.51456 16.4787 9.71343C15.5301 9.94592 14.6269 10.7703 13.952 11.423C13.6242 11.74 13.3487 12.0191 13.1465 12.1815C13.0429 12.2646 12.9536 12.3194 12.8839 12.3437C12.7599 12.387 12.5932 12.3401 12.4374 12.1953C12.1692 11.946 11.9113 11.409 11.9686 11.0217C11.985 10.9111 11.8946 10.8209 11.7836 10.7346C11.555 10.5567 11.1215 10.4241 10.9755 10.3557C10.8502 10.2971 10.7836 10.1961 10.8215 10.1255C10.8503 10.0714 10.884 9.97948 10.9965 9.87878C11.2929 9.61366 12.0601 9.12573 12.7175 8.53235C13.1357 8.15483 13.5109 7.73541 13.6715 7.30166C14 6.41451 14.0826 5.275 14.3538 4.40878C14.5307 3.84331 14.7905 3.39116 15.2165 3.16318C15.5051 3.00864 15.8723 2.95292 16.3501 3.04379C17.3837 3.24042 17.7759 3.93897 17.9092 4.58896C17.995 5.00771 17.9701 5.40544 17.9437 5.62522Z" fill="currentColor"/>
</svg>
