<svg width="24" height="24" viewBox="0 0 24 24" fill="none" xmlns="http://www.w3.org/2000/svg">
<path d="M6.98918 13.8776L6.36263 16.2166L4.07258 16.2651C3.3882 14.9957 3 13.5434 3 12C3 10.5076 3.36295 9.10021 4.00631 7.86098H4.0068L6.04559 8.23477L6.9387 10.2613C6.75177 10.8063 6.64989 11.3913 6.64989 12C6.64996 12.6607 6.76963 13.2936 6.98918 13.8776Z" fill="#FBBB00"/>
<path d="M20.8427 10.3187C20.9461 10.8631 21 11.4254 21 12C21 12.6443 20.9323 13.2729 20.8032 13.8791C20.3651 15.9422 19.2203 17.7437 17.6344 19.0185L17.6339 19.018L15.066 18.887L14.7025 16.6182C15.7548 16.0011 16.5772 15.0353 17.0104 13.8791H12.1979V10.3187H20.8427Z" fill="#518EF8"/>
<path d="M17.6339 19.018L17.6344 19.0185C16.092 20.2582 14.1328 21 12 21C8.57258 21 5.5927 19.0843 4.07258 16.2651L6.98918 13.8777C7.74922 15.9061 9.70598 17.3501 12 17.3501C12.986 17.3501 13.9098 17.0835 14.7025 16.6182L17.6339 19.018Z" fill="#28B446"/>
<path d="M17.7447 5.07197L14.8291 7.45894C14.0087 6.94615 13.0389 6.64992 12 6.64992C9.65406 6.64992 7.6607 8.16013 6.93873 10.2613L4.0068 7.86098H4.00631C5.50418 4.97307 8.52164 3 12 3C14.1837 3 16.186 3.77787 17.7447 5.07197Z" fill="#F14336"/>
</svg>
