<svg width="32" height="32" viewBox="0 0 32 32" fill="none" xmlns="http://www.w3.org/2000/svg">
<path d="M16 19.6667C18.025 19.6667 19.6666 18.025 19.6666 16C19.6666 13.975 18.025 12.3333 16 12.3333C13.9749 12.3333 12.3333 13.975 12.3333 16C12.3333 18.025 13.9749 19.6667 16 19.6667Z" fill="currentColor"/>
<path d="M26.5416 15.0833H24.1959C23.7715 11.2661 20.7343 8.22841 16.9166 7.80405V5.45835C16.9166 5.205 16.7117 5 16.4583 5H15.5417C15.2883 5 15.0833 5.205 15.0833 5.45835V7.80405C11.2657 8.22841 8.22841 11.2661 7.80409 15.0833H5.45835C5.205 15.0833 5 15.2884 5 15.5417V16.4583C5 16.7116 5.205 16.9167 5.45835 16.9167H7.80409C8.22841 20.7339 11.2657 23.7716 15.0833 24.1959V26.5417C15.0833 26.795 15.2883 27 15.5417 27H16.4583C16.7117 27 16.9167 26.795 16.9167 26.5417V24.1959C20.7343 23.7716 23.7716 20.7339 24.1959 16.9167H26.5417C26.795 16.9167 27 16.7116 27 16.4583V15.5417C27 15.2884 26.795 15.0833 26.5416 15.0833ZM16 22.4167C12.4622 22.4167 9.58334 19.5382 9.58334 16C9.58334 12.4618 12.4622 9.58335 16 9.58335C19.5377 9.58335 22.4166 12.4618 22.4166 16C22.4166 19.5382 19.5377 22.4167 16 22.4167Z" fill="currentColor"/>
</svg>
