<svg width="24" height="24" viewBox="0 0 24 24" fill="none" xmlns="http://www.w3.org/2000/svg">
<path d="M10.8134 16.2185L12 17.5801L13.1866 16.2185C12.8035 16.2991 12.4066 16.3414 12 16.3414C11.5934 16.3414 11.1965 16.299 10.8134 16.2185Z" fill="currentColor"/>
<path d="M16.5621 14.0996C16.1622 14.6144 12.3534 18.6015 12.3534 18.6015C12.2643 18.7037 12.1355 18.7623 12 18.7623C11.8645 18.7623 11.7357 18.7037 11.6466 18.6015C11.6466 18.6015 7.83775 14.6144 7.43791 14.0996C5.47691 14.5111 4 16.2512 4 18.3294V19.5293C4 19.7881 4.20981 19.998 4.46869 19.998L19.5312 20C19.6555 20 19.7748 19.9506 19.8627 19.8627C19.9506 19.7748 20 19.6556 20 19.5312V18.3294C20 16.2512 18.5231 14.5111 16.5621 14.0996Z" fill="currentColor"/>
<path d="M15.9868 6.10475C15.1121 4.83422 13.6513 4 12 4C11.6249 4 11.2596 4.04306 10.9088 4.12447L12.0025 6.10475H15.9868Z" fill="currentColor"/>
<path d="M12 15.4039C14.6708 15.4039 16.8438 13.2222 16.8438 10.5406V9.18747H7.15625V10.5406C7.15625 13.2222 9.32916 15.4039 12 15.4039Z" fill="currentColor"/>
<path d="M13.0475 8.24997H16.8054C16.7523 7.82828 16.645 7.42341 16.4911 7.04225H13.7052L13.0475 8.24997Z" fill="currentColor"/>
<path d="M12.6377 7.04225H7.50891C7.35503 7.42341 7.24772 7.82831 7.19462 8.24997H11.98L12.6377 7.04225Z" fill="currentColor"/>
<path d="M10.007 4.43097C9.20072 4.79791 8.51184 5.3805 8.01319 6.10475H10.9315L10.007 4.43097Z" fill="currentColor"/>
</svg>
