<svg width="24" height="24" viewBox="0 0 24 24" fill="none" xmlns="http://www.w3.org/2000/svg">
<path d="M11.9207 13.7316H10.4602L12.4053 9.14232C12.5543 8.79231 12.2991 8.39924 11.9207 8.39924H10.4602L11.3481 6.30429C11.4253 6.12203 11.3965 5.91165 11.2724 5.75751C10.3459 4.60771 9.13874 4 7.78125 4C5.07552 4 3 6.15794 3 9.01993C3 11.6195 4.8649 13.2661 7.18131 15.3501C8.0645 16.1447 9.06614 17.0461 10.0755 18.098C10.3389 18.3725 10.7925 18.2839 10.9386 17.9366L12.4053 14.4747C12.5543 14.1247 12.2991 13.7316 11.9207 13.7316Z" fill="currentColor"/>
<path d="M16.2188 4C14.8463 4 13.6289 4.62019 12.6978 5.79395C12.6284 5.88229 12.3886 6.47418 12.3399 6.58911C12.1903 6.94055 12.4461 7.33273 12.8245 7.33273H14.285L12.3399 11.922C12.1909 12.272 12.4461 12.6615 12.8245 12.6615H14.2855C13.6799 14.0931 12.3389 17.27 11.5139 19.2577C11.2785 19.8219 12.0204 20.2736 12.4058 19.8044C16.5588 14.7461 21 13.0855 21 9.01993C21 6.15794 18.9245 4 16.2188 4Z" fill="currentColor"/>
</svg>
