<svg width="45" height="45" viewBox="0 0 45 45" fill="none" xmlns="http://www.w3.org/2000/svg">
<path d="M7.23127 13.8327C6.09317 13.8329 4.96214 14.3886 3.86522 15.4855C3.78213 15.5686 3.69924 15.6547 3.61656 15.7441C1.90651 17.5908 0.964568 20.0023 0.964201 22.5345C0.963791 25.0685 1.90628 27.482 3.61789 29.3305C4.79437 30.601 6.01272 31.2451 7.2391 31.2449L22.5814 31.2442L22.5839 13.8321L7.23127 13.8327Z" fill="#FAFAFD"/>
<path d="M37.9359 31.2405C39.1602 31.2403 40.3763 30.5973 41.5506 29.3292C43.2606 27.4824 44.2026 25.0708 44.2029 22.5387C44.2033 20.0047 43.2608 17.5913 41.5492 15.7428C40.3728 14.4723 39.1544 13.8282 37.928 13.8283L22.5838 13.829L22.5814 31.2411L37.9359 31.2405Z" fill="#FAFAFD"/>
<path d="M22.5856 44.156C25.1178 44.1557 27.5293 43.2137 29.376 41.5036C30.6442 40.3293 31.2872 39.1132 31.2874 37.8889L31.2918 7.19215C31.292 5.96567 30.6479 4.74737 29.3774 3.57092C27.5289 1.85931 25.1154 0.916868 22.5814 0.917228C20.0493 0.917546 17.6377 1.85954 15.7909 3.5696C15.7016 3.65233 15.6155 3.73516 15.5324 3.81826C14.4354 4.91518 13.8797 6.04627 13.8796 7.18432L13.8752 37.8811C13.875 39.1076 14.5192 40.3259 15.7897 41.5024C17.6381 43.2139 20.0516 44.1564 22.5856 44.156ZM27.5088 22.5359C27.5087 23.0799 27.0676 23.521 26.5236 23.5211C25.9796 23.5212 25.5386 23.0802 25.5387 22.5362C25.5387 21.9922 25.9798 21.5511 26.5238 21.551C27.0678 21.5509 27.5088 21.9919 27.5088 22.5359ZM23.5691 18.5961C23.569 19.1401 23.128 19.5811 22.5839 19.5813C22.0399 19.5814 21.5989 19.1404 21.599 18.5964C21.5991 18.0524 22.0402 17.6113 22.5842 17.6112C23.1282 17.6111 23.5692 18.0521 23.5691 18.5961ZM27.5093 18.5955C27.5092 19.1395 27.0681 19.5806 26.5241 19.5807C25.9801 19.5808 25.5391 19.1398 25.5392 18.5958C25.5393 18.0518 25.9804 17.6107 26.5244 17.6106C27.0684 17.6105 27.5093 18.0515 27.5093 18.5955ZM17.6589 18.5969C17.659 18.0529 18.1001 17.6118 18.6441 17.6117C19.1881 17.6117 19.6291 18.0526 19.629 18.5966C19.629 19.1407 19.1878 19.5818 18.6438 19.5818C18.0997 19.5819 17.6588 19.141 17.6589 18.5969ZM21.5985 22.5368C21.5985 21.9928 22.0396 21.5517 22.5837 21.5516C23.1277 21.5515 23.5686 21.9925 23.5686 22.5365C23.5685 23.0805 23.1274 23.5216 22.5834 23.5217C22.0394 23.5217 21.5984 23.0808 21.5985 22.5368ZM25.5381 26.4766C25.5382 25.9326 25.9793 25.4915 26.5233 25.4914C27.0673 25.4913 27.5083 25.9323 27.5082 26.4763C27.5081 27.0203 27.067 27.4614 26.523 27.4615C25.9789 27.4616 25.538 27.0206 25.5381 26.4766ZM17.6583 22.5374C17.6584 21.9934 18.0995 21.5523 18.6435 21.5522C19.1876 21.552 19.6285 21.9931 19.6284 22.5371C19.6283 23.0811 19.1872 23.5222 18.6432 23.5223C18.0992 23.5223 17.6583 23.0814 17.6583 22.5374ZM21.5979 26.4772C21.598 25.9331 22.039 25.4921 22.5831 25.492C23.1271 25.4919 23.5681 25.9329 23.568 26.4769C23.5679 27.0209 23.1268 27.462 22.5828 27.4621C22.0388 27.4621 21.5978 27.0212 21.5979 26.4772ZM17.6578 26.4778C17.6579 25.9338 18.099 25.4926 18.643 25.4926C19.187 25.4925 19.6279 25.9335 19.6279 26.4775C19.6278 27.0215 19.1867 27.4626 18.6427 27.4627C18.0986 27.4627 17.6577 27.0218 17.6578 26.4778Z" fill="#FAFAFD"/>
</svg>
