<svg width="565" height="565" viewBox="0 0 565 565" fill="none" xmlns="http://www.w3.org/2000/svg">
<g filter="url(#filter0_d_745_5444)">
<path d="M279.31 487.061C186.329 487.061 -16.9425 308.875 28.5438 185.562C81.9373 40.8131 483.446 40.8126 536.839 185.562C582.326 308.874 372.291 487.061 279.31 487.061Z" fill="url(#paint0_radial_745_5444)"/>
</g>
<path d="M259.231 377.833C258.093 377.833 256.962 378.389 255.865 379.485C255.782 379.569 255.699 379.655 255.617 379.744C253.907 381.591 252.965 384.002 252.964 386.535C252.964 389.069 253.906 391.482 255.618 393.33C256.794 394.601 258.013 395.245 259.239 395.245L274.581 395.244L274.584 377.832L259.231 377.833Z" fill="#FAFAFD"/>
<path d="M289.936 395.241C291.16 395.24 292.376 394.597 293.551 393.329C295.261 391.482 296.203 389.071 296.203 386.539C296.203 384.005 295.261 381.591 293.549 379.743C292.373 378.472 291.154 377.828 289.928 377.828L274.584 377.829L274.581 395.241L289.936 395.241Z" fill="#FAFAFD"/>
<path d="M274.586 408.156C277.118 408.156 279.529 407.214 281.376 405.504C282.644 404.329 283.287 403.113 283.287 401.889L283.292 371.192C283.292 369.966 282.648 368.747 281.377 367.571C279.529 365.859 277.115 364.917 274.581 364.917C272.049 364.918 269.638 365.86 267.791 367.57C267.702 367.652 267.615 367.735 267.532 367.818C266.435 368.915 265.88 370.046 265.88 371.184L265.875 401.881C265.875 403.108 266.519 404.326 267.79 405.502C269.638 407.214 272.052 408.156 274.586 408.156ZM279.509 386.536C279.509 387.08 279.068 387.521 278.524 387.521C277.98 387.521 277.539 387.08 277.539 386.536C277.539 385.992 277.98 385.551 278.524 385.551C279.068 385.551 279.509 385.992 279.509 386.536ZM275.569 382.596C275.569 383.14 275.128 383.581 274.584 383.581C274.04 383.581 273.599 383.14 273.599 382.596C273.599 382.052 274.04 381.611 274.584 381.611C275.128 381.611 275.569 382.052 275.569 382.596ZM279.509 382.596C279.509 383.14 279.068 383.581 278.524 383.581C277.98 383.581 277.539 383.14 277.539 382.596C277.539 382.052 277.98 381.611 278.524 381.611C279.068 381.611 279.509 382.051 279.509 382.596ZM269.659 382.597C269.659 382.053 270.1 381.612 270.644 381.612C271.188 381.612 271.629 382.053 271.629 382.597C271.629 383.141 271.188 383.582 270.644 383.582C270.1 383.582 269.659 383.141 269.659 382.597ZM273.598 386.537C273.599 385.993 274.04 385.552 274.584 385.552C275.128 385.551 275.569 385.992 275.569 386.536C275.568 387.08 275.127 387.522 274.583 387.522C274.039 387.522 273.598 387.081 273.598 386.537ZM277.538 390.477C277.538 389.933 277.979 389.491 278.523 389.491C279.067 389.491 279.508 389.932 279.508 390.476C279.508 391.02 279.067 391.461 278.523 391.462C277.979 391.462 277.538 391.021 277.538 390.477ZM269.658 386.537C269.658 385.993 270.099 385.552 270.644 385.552C271.188 385.552 271.629 385.993 271.628 386.537C271.628 387.081 271.187 387.522 270.643 387.522C270.099 387.522 269.658 387.081 269.658 386.537ZM273.598 390.477C273.598 389.933 274.039 389.492 274.583 389.492C275.127 389.492 275.568 389.933 275.568 390.477C275.568 391.021 275.127 391.462 274.583 391.462C274.039 391.462 273.598 391.021 273.598 390.477ZM269.658 390.478C269.658 389.934 270.099 389.493 270.643 389.493C271.187 389.492 271.628 389.933 271.628 390.477C271.628 391.021 271.187 391.463 270.643 391.463C270.099 391.463 269.658 391.022 269.658 390.478Z" fill="#FAFAFD"/>
<defs>
<filter id="filter0_d_745_5444" x="2" y="57" width="561.204" height="450.061" filterUnits="userSpaceOnUse" color-interpolation-filters="sRGB">
<feFlood flood-opacity="0" result="BackgroundImageFix"/>
<feColorMatrix in="SourceAlpha" type="matrix" values="0 0 0 0 0 0 0 0 0 0 0 0 0 0 0 0 0 0 127 0" result="hardAlpha"/>
<feOffset/>
<feGaussianBlur stdDeviation="10"/>
<feComposite in2="hardAlpha" operator="out"/>
<feColorMatrix type="matrix" values="0 0 0 0 0 0 0 0 0 0 0 0 0 0 0 0 0 0 0.05 0"/>
<feBlend mode="normal" in2="BackgroundImageFix" result="effect1_dropShadow_745_5444"/>
<feBlend mode="normal" in="SourceGraphic" in2="effect1_dropShadow_745_5444" result="shape"/>
</filter>
<radialGradient id="paint0_radial_745_5444" cx="0" cy="0" r="1" gradientUnits="userSpaceOnUse" gradientTransform="translate(282.602 282.031) rotate(90) scale(205.031 260.602)">
<stop stop-color="#F15A58"/>
<stop offset="1" stop-color="#D94442"/>
</radialGradient>
</defs>
</svg>
