<svg width="32" height="32" viewBox="0 0 32 32" fill="none" xmlns="http://www.w3.org/2000/svg">
<path fill-rule="evenodd" clip-rule="evenodd" d="M16 5.00023C20.9673 5.00023 24.9997 8.98983 25 13.9045C25 16.4639 23.7094 19.0987 22.0889 21.3108C19.8262 24.4002 16.9961 26.6526 16.9961 26.6526C16.4143 27.1154 15.5857 27.1156 15.0039 26.6526C14.9941 26.6447 12.1699 24.3948 9.91113 21.3108C8.2906 19.0987 7 16.4639 7 13.9045C7.00025 8.98983 11.0327 5.00023 16 5.00023ZM16 10.7502C14.2051 10.7502 12.75 12.2053 12.75 14.0002C12.75 15.7952 14.2051 17.2502 16 17.2502C17.7949 17.2502 19.25 15.7952 19.25 14.0002C19.25 12.2053 17.7949 10.7502 16 10.7502Z" fill="currentColor"/>
</svg>
