<svg width="32" height="32" viewBox="0 0 32 32" fill="none" xmlns="http://www.w3.org/2000/svg">
<path d="M16 10.7502C17.7949 10.7502 19.25 12.2053 19.25 14.0002C19.25 15.7952 17.7949 17.2502 16 17.2502C14.2051 17.2502 12.75 15.7952 12.75 14.0002C12.75 12.2053 14.2051 10.7502 16 10.7502Z" fill="currentColor"/>
<path fill-rule="evenodd" clip-rule="evenodd" d="M16 5.00023C20.9673 5.00023 24.9997 8.98983 25 13.9045C25 16.4638 23.7094 19.0987 22.0889 21.3108C19.8338 24.3898 17.015 26.6375 16.9961 26.6526C16.4143 27.1154 15.5857 27.1156 15.0039 26.6526C14.9826 26.6356 12.1653 24.3885 9.91113 21.3108C8.29064 19.0987 7 16.4638 7 13.9045C7.0003 8.98983 11.0327 5.00023 16 5.00023ZM16 7.00023C12.1172 7.00023 9.0003 10.1144 9 13.9045C9 15.8415 10.0059 18.0563 11.5244 20.1291C12.5646 21.5494 13.7514 22.7962 14.6904 23.6965C15.1567 24.1436 15.5548 24.4984 15.833 24.7385C15.8942 24.7913 15.9502 24.8378 15.999 24.8791C16.0481 24.8376 16.1053 24.7917 16.167 24.7385C16.4452 24.4985 16.8434 24.1434 17.3096 23.6965C18.2486 22.7964 19.4354 21.5494 20.4756 20.1291C21.9941 18.0563 23 15.8415 23 13.9045C22.9997 10.1144 19.8828 7.00023 16 7.00023Z" fill="currentColor"/>
</svg>
