<svg width="24" height="24" viewBox="0 0 24 24" fill="none" xmlns="http://www.w3.org/2000/svg">
<path d="M18.6594 11.5909C18.4325 11.3788 18.1572 11.2728 17.8329 11.2728H17.4443V9.09085C17.4443 7.69693 16.9097 6.50007 15.8402 5.50007C14.7708 4.50002 13.4909 4 11.9999 4C10.509 4 9.22891 4.50002 8.15957 5.50003C7.09006 6.50007 6.55548 7.69689 6.55548 9.09085V11.2728H6.16664C5.84267 11.2728 5.56715 11.3788 5.34027 11.5909C5.1134 11.8029 5 12.0605 5 12.3637V18.9091C5 19.2121 5.11344 19.4698 5.34027 19.6819C5.56715 19.8939 5.84267 20 6.16664 20H17.8332C18.1575 20 18.4328 19.894 18.6597 19.6819C18.8864 19.4698 19 19.2121 19 18.9091V12.3636C19.0002 12.0607 18.8864 11.8031 18.6594 11.5909ZM15.111 11.2728H8.88885V9.09085C8.88885 8.28786 9.19273 7.60221 9.80035 7.03412C10.4081 6.46596 11.1412 6.18194 12.0001 6.18194C12.859 6.18194 13.592 6.46592 14.1997 7.03412C14.8072 7.60217 15.111 8.28786 15.111 9.09085V11.2728Z" fill="currentColor"/>
</svg>
