<svg width="24" height="24" viewBox="0 0 24 24" fill="none" xmlns="http://www.w3.org/2000/svg">
<path d="M10.6235 4.00021C11.8462 4.00028 12.9602 4.42399 13.6519 5.1174C12.3962 5.30719 11.321 6.12458 10.8433 7.26486C10.0421 7.13661 9.19183 7.26459 8.43506 7.68576L8.85889 8.39377C10.189 7.65352 11.8952 8.09497 12.6626 9.37717L13.3979 8.96799C12.9869 8.28126 12.3687 7.78043 11.6636 7.49435C12.1021 6.53565 13.0995 5.89281 14.2114 5.89279C14.3105 5.89279 14.411 5.89806 14.5112 5.90842L14.521 5.90939C14.5535 5.91286 14.5862 5.91655 14.6187 5.92111C14.9779 5.9726 15.3259 6.09137 15.6343 6.26974C15.6355 6.27042 15.637 6.27105 15.6382 6.2717C16.3106 6.65906 16.7825 7.2964 16.9399 8.03928L17.77 7.87521C17.6134 7.1361 17.2182 6.47789 16.6509 5.98264C16.9619 5.87016 17.2924 5.81177 17.6294 5.81174C19.1649 5.81174 20.4145 7.0155 20.4146 8.49533C20.4146 8.66111 20.3985 8.82487 20.3677 8.98557C20.0269 8.73192 19.646 8.52963 19.2407 8.38986L18.9546 9.16037C19.4693 9.33768 19.9346 9.64176 20.3003 10.0393C20.829 10.6168 21.1196 11.3564 21.1196 12.1281C21.1196 12.7573 20.9293 13.3633 20.5688 13.8801C20.5303 13.9355 20.5067 13.9994 20.4995 14.0656C20.4072 14.9153 19.9755 15.6821 19.2847 16.2248C19.1714 16.3139 19.1132 16.4532 19.1313 16.593C19.1569 16.7896 19.1694 16.9725 19.1694 17.1516C19.1693 18.1932 18.7643 19.1922 18.0581 19.8918C17.9508 19.9977 17.807 20.0272 17.6646 19.9738C17.521 19.9196 17.4363 19.8039 17.4321 19.6565C17.4058 18.7128 17.1036 17.7768 16.5815 17.0207C16.5234 16.9365 16.4352 16.8758 16.3335 16.8508C15.9559 16.758 15.5999 16.6022 15.2798 16.3918C16.6923 15.8127 17.7099 14.5081 17.8296 12.966C18.3279 12.8198 18.8013 12.5679 19.2114 12.2082L18.6401 11.6037C17.5046 12.5994 15.7399 12.5191 14.7065 11.425L14.0796 11.9758C14.7953 12.7336 15.7803 13.1184 16.7681 13.1184C16.8324 13.1184 16.8971 13.1167 16.9614 13.1135C16.765 14.4601 15.7055 15.543 14.3413 15.8235C14.3399 15.8237 14.3379 15.8232 14.3364 15.8235C14.1427 15.8628 13.9474 15.8857 13.7534 15.8918H13.7505C12.9248 15.9172 12.1164 15.6468 11.4858 15.136C10.8822 14.6478 10.4807 13.9709 10.3433 13.2317C10.9548 13.2233 11.5573 13.0649 12.1011 12.7619L11.6763 12.0539C11.0331 12.4123 10.2833 12.5073 9.56494 12.3215C8.84666 12.1357 8.24643 11.6912 7.87451 11.0705L7.14014 11.4797C7.62528 12.2894 8.40826 12.8693 9.34521 13.1115C9.38746 13.1225 9.42981 13.1324 9.47217 13.1418C9.57644 13.9845 9.95362 14.7743 10.5464 15.3977C10.0696 15.7383 9.4959 15.923 8.89307 15.9231C8.85134 15.9231 8.8094 15.9209 8.76807 15.9192C8.75373 15.9186 8.73938 15.918 8.7251 15.9172C8.69904 15.9157 8.67286 15.9135 8.64697 15.9113C8.56494 15.9042 8.48326 15.8941 8.40283 15.8801C8.4009 15.8798 8.39891 15.8795 8.39697 15.8791C7.94782 15.7997 7.52734 15.6146 7.17236 15.3459C7.17016 15.3443 7.16767 15.3427 7.16553 15.341C7.14309 15.3239 7.12099 15.306 7.09912 15.2883C7.08553 15.2772 7.07245 15.2655 7.05908 15.2541C7.04335 15.2409 7.02759 15.2277 7.01221 15.2141C6.9848 15.1897 6.95754 15.1652 6.93115 15.1399C6.92743 15.1363 6.9231 15.1327 6.91943 15.1291C6.41932 14.6434 6.10995 13.9747 6.10986 13.2375H5.26123C5.26126 13.5566 5.3069 13.8655 5.39014 14.1594C3.98343 14.0265 2.88056 12.8792 2.88037 11.4875C2.88037 10.6603 3.2764 9.88882 3.93604 9.38498C4.10181 9.67645 4.31077 9.94584 4.55908 10.1838C4.48673 10.7707 4.65909 11.3595 5.05908 11.8694L5.73486 11.3762C5.42144 10.9766 5.31963 10.5306 5.43896 10.0871C5.58611 9.54101 6.06124 9.0613 6.74268 8.7717L6.40088 8.02365C5.7222 8.31209 5.19118 8.75634 4.87354 9.28635C4.70449 9.06366 4.57175 8.81758 4.48096 8.55685C4.47982 8.55366 4.47917 8.55028 4.47803 8.54709C4.43242 8.41444 4.39729 8.27777 4.37354 8.13889C4.37279 8.13438 4.37232 8.12966 4.37158 8.12521C4.36506 8.0858 4.35967 8.04587 4.35498 8.00607C4.3539 7.99693 4.35204 7.98793 4.35107 7.97873C4.34724 7.94274 4.34463 7.90654 4.34229 7.87033C4.3416 7.85968 4.34085 7.84876 4.34033 7.8381C4.33794 7.793 4.33643 7.7478 4.33643 7.70236C4.33643 6.22158 5.58509 5.01682 7.11963 5.01682C7.17264 5.01683 7.22587 5.01873 7.27979 5.0217C7.29765 5.02269 7.31569 5.02428 7.3335 5.0256C7.36693 5.02808 7.40066 5.03077 7.43506 5.03439C8.11614 5.10951 8.74954 5.42503 9.20752 5.92599L9.84424 5.38596C9.47639 4.98347 9.02136 4.67329 8.51904 4.47092C9.13396 4.16741 9.86539 4.00021 10.6235 4.00021Z" fill="currentColor"/>
</svg>
