<svg width="32" height="32" viewBox="0 0 32 32" fill="none" xmlns="http://www.w3.org/2000/svg">
<path d="M16 6C16.6735 6 17.2195 6.54599 17.2195 7.21951V24.7805C17.2195 25.454 16.6735 26 16 26C15.3265 26 14.7805 25.454 14.7805 24.7805V7.21951C14.7805 6.54599 15.3265 6 16 6Z" fill="currentColor"/>
<path d="M12.3415 11.122C12.3415 10.4484 11.7955 9.90244 11.122 9.90244C10.4484 9.90244 9.90244 10.4484 9.90244 11.122V20.878C9.90244 21.5516 10.4484 22.0976 11.122 22.0976C11.7955 22.0976 12.3415 21.5516 12.3415 20.878V11.122Z" fill="currentColor"/>
<path d="M7.21951 13.8049C7.89303 13.8049 8.43902 14.3509 8.43902 15.0244V16.9756C8.43902 17.6491 7.89303 18.1951 7.21951 18.1951C6.54599 18.1951 6 17.6491 6 16.9756V15.0244C6 14.3509 6.54599 13.8049 7.21951 13.8049Z" fill="currentColor"/>
<path d="M24.7805 13.8049C25.454 13.8049 26 14.3509 26 15.0244V16.9756C26 17.6491 25.454 18.1951 24.7805 18.1951C24.107 18.1951 23.561 17.6491 23.561 16.9756V15.0244C23.561 14.3509 24.107 13.8049 24.7805 13.8049Z" fill="currentColor"/>
<path d="M22.0976 11.122C22.0976 10.4484 21.5516 9.90244 20.878 9.90244C20.2045 9.90244 19.6585 10.4484 19.6585 11.122V20.878C19.6585 21.5516 20.2045 22.0976 20.878 22.0976C21.5516 22.0976 22.0976 21.5516 22.0976 20.878V11.122Z" fill="currentColor"/>
</svg>
