<svg width="40" height="40" viewBox="0 0 40 40" fill="none" xmlns="http://www.w3.org/2000/svg">
<path d="M20 0C21.347 0 22.439 1.09198 22.439 2.43902V37.561C22.439 38.908 21.347 40 20 40C18.653 40 17.561 38.908 17.561 37.561V2.43902C17.561 1.09198 18.653 0 20 0Z" fill="currentColor"/>
<path d="M12.6829 10.2439C12.6829 8.89686 11.5909 7.80488 10.2439 7.80488C8.89686 7.80488 7.80488 8.89686 7.80488 10.2439V29.756C7.80488 31.1032 8.89686 32.1952 10.2439 32.1952C11.5909 32.1952 12.6829 31.1032 12.6829 29.756V10.2439Z" fill="currentColor"/>
<path d="M2.43902 15.6098C3.78606 15.6098 4.87804 16.7018 4.87804 18.0488V21.9512C4.87804 23.2982 3.78606 24.3902 2.43902 24.3902C1.09198 24.3902 0 23.2982 0 21.9512V18.0488C0 16.7018 1.09198 15.6098 2.43902 15.6098Z" fill="currentColor"/>
<path d="M37.561 15.6098C38.908 15.6098 40 16.7018 40 18.0488V21.9512C40 23.2982 38.908 24.3902 37.561 24.3902C36.214 24.3902 35.122 23.2982 35.122 21.9512V18.0488C35.122 16.7018 36.214 15.6098 37.561 15.6098Z" fill="currentColor"/>
<path d="M32.1952 10.2439C32.1952 8.89686 31.1032 7.80488 29.756 7.80488C28.409 7.80488 27.317 8.89686 27.317 10.2439V29.756C27.317 31.1032 28.409 32.1952 29.756 32.1952C31.1032 32.1952 32.1952 31.1032 32.1952 29.756V10.2439Z" fill="currentColor"/>
</svg>
