<svg width="20" height="20" viewBox="0 0 20 20" fill="none" xmlns="http://www.w3.org/2000/svg">
<path d="M10 0C10.6735 0 11.2195 0.54599 11.2195 1.21951V18.7805C11.2195 19.454 10.6735 20 10 20C9.3265 20 8.7805 19.454 8.7805 18.7805V1.21951C8.7805 0.54599 9.3265 0 10 0Z" fill="#FF423C"/>
<path d="M6.34146 5.12195C6.34146 4.44843 5.79547 3.90244 5.12195 3.90244C4.44843 3.90244 3.90244 4.44843 3.90244 5.12195V14.878C3.90244 15.5516 4.44843 16.0976 5.12195 16.0976C5.79547 16.0976 6.34146 15.5516 6.34146 14.878V5.12195Z" fill="#FF423C"/>
<path d="M1.21951 7.80488C1.89303 7.80488 2.43902 8.3509 2.43902 9.0244V10.9756C2.43902 11.6491 1.89303 12.1951 1.21951 12.1951C0.54599 12.1951 0 11.6491 0 10.9756V9.0244C0 8.3509 0.54599 7.80488 1.21951 7.80488Z" fill="#FF423C"/>
<path d="M18.7805 7.80488C19.454 7.80488 20 8.3509 20 9.0244V10.9756C20 11.6491 19.454 12.1951 18.7805 12.1951C18.107 12.1951 17.561 11.6491 17.561 10.9756V9.0244C17.561 8.3509 18.107 7.80488 18.7805 7.80488Z" fill="#FF423C"/>
<path d="M16.0976 5.12195C16.0976 4.44843 15.5516 3.90244 14.878 3.90244C14.2045 3.90244 13.6585 4.44843 13.6585 5.12195V14.878C13.6585 15.5516 14.2045 16.0976 14.878 16.0976C15.5516 16.0976 16.0976 15.5516 16.0976 14.878V5.12195Z" fill="#FF423C"/>
</svg>
