<svg width="48" height="48" viewBox="0 0 48 48" fill="none" xmlns="http://www.w3.org/2000/svg">
<path d="M18.1236 21.3906C18.0543 21.0368 18.0195 20.6829 18.0195 20.3114C18.0195 16.9324 20.7252 14.1549 24.0726 14.1549C24.3848 14.1549 24.6971 14.1726 24.9919 14.2433L30.8542 8.1399C28.825 7.04294 26.5182 6.4415 24.0726 6.4415C15.921 6.4415 9.27812 13.1819 9.27812 21.4968C9.27812 23.4959 10.0932 25.9019 11.3421 28.4317L18.1236 21.3906Z" fill="currentColor"/>
<path d="M41.5036 4.4954C40.8445 3.82323 39.7692 3.84083 39.1273 4.51311C-4.18856 49.4912 46.6841 -3.4772 6.48573 38.4449C5.82665 39.1172 5.84401 40.1964 6.50299 40.8687C7.1978 41.5401 8.28806 41.4837 8.86187 40.8333L14.9669 34.4821C17.0656 37.5958 19.3898 40.4972 21.2109 42.6554C21.922 43.5047 22.9627 44 24.0726 44C25.1653 44 26.206 43.5047 26.9171 42.6554C31.3572 37.3835 38.8152 27.6003 38.8152 21.4968C38.8152 18.1885 37.7745 15.1279 35.9881 12.6511L41.5208 6.90149C42.1626 6.22922 42.1626 5.15007 41.5036 4.4954ZM30.0911 20.3114C30.0911 23.7082 27.3854 26.468 24.0726 26.468C23.639 26.468 23.2228 26.4149 22.8065 26.3442L29.935 18.9315C30.039 19.3738 30.0911 19.8338 30.0911 20.3114Z" fill="currentColor"/>
</svg>
