<svg width="24" height="24" viewBox="0 0 24 24" fill="none" xmlns="http://www.w3.org/2000/svg">
<path d="M7.22071 14.3981C7.53414 14.3981 7.7882 14.1463 7.7882 13.8356V4.78678C7.7882 4.42189 8.08769 4.125 8.45582 4.125H8.91502L9.32613 5.3792C9.4021 5.61095 9.61998 5.76789 9.86584 5.76789H14.4002C14.646 5.76789 14.8639 5.61098 14.9399 5.3792L15.351 4.125H15.8102C16.0612 4.125 16.2892 4.26418 16.4051 4.48823C16.5482 4.76463 16.8903 4.87376 17.1691 4.7319C17.4479 4.59008 17.558 4.25107 17.415 3.97464C17.1038 3.37346 16.4888 3 15.8102 3H8.45582C7.46186 3 6.65323 3.80153 6.65323 4.78678V13.8356C6.65323 14.1463 6.90728 14.3981 7.22071 14.3981ZM13.9879 4.64285H10.2782L10.1084 4.125H14.1576L13.9879 4.64285ZM11.2463 18.025C11.2463 17.5409 11.6446 17.1461 12.133 17.1461C12.6214 17.1461 13.0197 17.5409 13.0197 18.025C13.0197 18.5091 12.6214 18.9039 12.133 18.9039C11.6446 18.9039 11.2463 18.509 11.2463 18.025ZM20.8337 3.32295C20.6121 3.10329 20.2528 3.10329 20.0312 3.32295L6.81964 16.4184C6.81954 16.4186 6.81939 16.4187 6.81925 16.4188L3.16623 20.0398C2.94459 20.2594 2.94459 20.6156 3.16623 20.8353C3.27703 20.9451 3.42224 21 3.56748 21C3.71272 21 3.85793 20.9451 3.96873 20.8352L6.65323 18.1743V19.2132C6.65323 20.1984 7.46186 21 8.45582 21H15.8102C16.8042 21 17.6128 20.1984 17.6128 19.2132V7.31111L20.8337 4.11843C21.0554 3.89877 21.0554 3.5426 20.8337 3.32295ZM16.4778 19.2132C16.4778 19.5781 16.1783 19.875 15.8102 19.875H8.45582C8.08769 19.875 7.7882 19.5781 7.7882 19.2132V17.0494L16.4778 8.43611V19.2132Z" fill="black"/>
</svg>
