<svg width="48" height="48" viewBox="0 0 48 48" fill="none" xmlns="http://www.w3.org/2000/svg">
<path d="M13.3794 29.3291C14.0759 29.3291 14.6404 28.7695 14.6404 28.0791V7.97063C14.6404 7.15977 15.306 6.5 16.124 6.5H17.1445L18.0581 9.28711C18.2269 9.80211 18.7111 10.1509 19.2574 10.1509H29.3337C29.8801 10.1509 30.3643 9.80219 30.5331 9.28711L31.4467 6.5H32.4671C33.0249 6.5 33.5315 6.8093 33.7892 7.30719C34.107 7.92141 34.8674 8.16391 35.4869 7.84867C36.1065 7.53352 36.3512 6.78016 36.0332 6.16586C35.3417 4.82992 33.9752 4 32.4671 4H16.124C13.9152 4 12.1183 5.78117 12.1183 7.97063V28.0791C12.1183 28.7695 12.6829 29.3291 13.3794 29.3291ZM28.4175 7.65078H20.1737L19.7965 6.5H28.7947L28.4175 7.65078ZM22.3251 37.3888C22.3251 36.3131 23.2103 35.4357 24.2955 35.4357C25.3808 35.4357 26.266 36.313 26.266 37.3888C26.266 38.4646 25.3808 39.342 24.2955 39.342C23.2103 39.342 22.3251 38.4645 22.3251 37.3888ZM43.6305 4.71766C43.1381 4.22953 42.3396 4.22953 41.8471 4.71766L12.4881 33.8187C12.4879 33.8191 12.4875 33.8193 12.4872 33.8196L4.3694 41.8662C3.87687 42.3543 3.87687 43.1458 4.3694 43.6339C4.61563 43.878 4.9383 44 5.26106 44C5.58382 44 5.9065 43.8779 6.15273 43.6338L12.1183 37.7207V40.0293C12.1183 42.2187 13.9152 43.9999 16.124 43.9999H32.4671C34.6759 43.9999 36.4729 42.2187 36.4729 40.0293V13.5802L43.6305 6.48539C44.1232 5.99727 44.1232 5.20578 43.6305 4.71766ZM33.9507 40.0294C33.9507 40.8403 33.2852 41.5 32.4671 41.5H16.124C15.306 41.5 14.6404 40.8403 14.6404 40.0294V35.2208L33.9507 16.0802V40.0294Z" fill="black"/>
</svg>
