<svg width="24" height="24" viewBox="0 0 24 24" fill="none" xmlns="http://www.w3.org/2000/svg">
<path d="M18.6551 5.34486C17.7812 4.48312 16.6033 4 15.376 4C14.1486 4 12.9707 4.48312 12.0968 5.34486L5.35828 12.0834C4.48859 12.9531 4 14.1326 4 15.3625C4 16.5925 4.48859 17.772 5.35828 18.6417C6.22797 19.5114 7.40753 20 8.63746 20C9.86739 20 11.0469 19.5114 11.9166 18.6417L18.6551 11.9032C19.5169 11.0293 20 9.85135 20 8.62404C20 7.39673 19.5169 6.21875 18.6551 5.34486ZM10.9826 17.6877C10.3611 18.2967 9.52447 18.6358 8.65438 18.6314C7.78428 18.627 6.95107 18.2794 6.33581 17.6642C5.72056 17.0489 5.37296 16.2157 5.36857 15.3456C5.36417 14.4755 5.70333 13.6389 6.31235 13.0174L9.2079 10.1185L13.8781 14.7888L10.9826 17.6877Z" fill="currentColor"/>
</svg>
