<svg width="32" height="32" viewBox="0 0 32 32" fill="none" xmlns="http://www.w3.org/2000/svg">
<path d="M9.72675 5.03835C10.0992 4.96082 10.4853 5.00147 10.831 5.1546C11.1767 5.30772 11.4645 5.56563 11.654 5.8921L13.5242 9.06968C13.8458 9.61552 13.9439 10.266 13.7984 10.8869C13.6529 11.5078 13.2748 12.0517 12.7421 12.4064L11.3603 13.3251C12.84 16.5459 15.4208 19.1268 18.6442 20.6093L19.5801 19.2266C19.9372 18.696 20.4832 18.3202 21.1055 18.1768C21.7277 18.0335 22.3789 18.1333 22.9247 18.4559L26.1153 20.3447C26.4374 20.5345 26.6919 20.8196 26.844 21.161C26.9961 21.5025 27.0383 21.8836 26.9649 22.2523C26.6095 23.8091 25.6528 25.1686 24.304 26.0337C22.9551 26.8988 21.3237 27.1992 19.7664 26.8693C16.2565 25.9108 13.0643 24.0592 10.5001 21.4946C7.9358 18.9299 6.08673 15.7394 5.13259 12.2333C4.80086 10.6815 5.09735 9.05521 5.95762 7.70795C6.81788 6.36068 8.1724 5.40131 9.72675 5.03835Z" fill="currentColor"/>
</svg>
