<svg width="24" height="24" viewBox="0 0 24 24" fill="none" xmlns="http://www.w3.org/2000/svg">
<path d="M6.58219 3.03138C6.90383 2.96794 7.23734 3.0012 7.53587 3.12649C7.8344 3.25177 8.08296 3.46279 8.24663 3.7299L9.86184 6.32974C10.1395 6.77633 10.2243 7.30853 10.0986 7.81653C9.97293 8.32453 9.6464 8.76956 9.1864 9.05981L7.99296 9.81141C9.27093 12.4467 11.4998 14.5583 14.2837 15.7712L15.0919 14.6399C15.4003 14.2058 15.8719 13.8984 16.4093 13.7811C16.9467 13.6637 17.509 13.7455 17.9804 14.0094L20.736 15.5547C21.0142 15.71 21.2339 15.9433 21.3653 16.2226C21.4966 16.502 21.533 16.8139 21.4697 17.1155C21.1627 18.3892 20.3365 19.5015 19.1716 20.2094C18.0067 20.9172 16.5978 21.163 15.2528 20.893C12.2215 20.1088 9.46463 18.5939 7.25005 16.4956C5.03546 14.3972 3.43854 11.7868 2.61451 8.91812C2.32801 7.64848 2.58407 6.3179 3.32703 5.21559C4.06999 4.11328 5.2398 3.32834 6.58219 3.03138Z" fill="currentColor"/>
</svg>
