<svg width="32" height="32" viewBox="0 0 32 32" fill="none" xmlns="http://www.w3.org/2000/svg">
<path fill-rule="evenodd" clip-rule="evenodd" d="M10.0788 5.05518C10.6142 4.94372 11.172 5.00177 11.6726 5.22346C12.1714 5.44448 12.5878 5.81661 12.8628 6.28788L14.5685 9.18705C14.9885 9.9 15.116 10.7478 14.9272 11.5536C14.7501 12.3084 14.3088 12.9744 13.6871 13.4325L13.5597 13.5215L13.0074 13.8883C14.1707 16.0397 15.9355 17.8022 18.0894 18.9661L18.4701 18.4049C18.9319 17.72 19.6379 17.2345 20.4429 17.0489C21.2492 16.8631 22.0966 16.9924 22.8087 17.4132L25.721 19.1369C26.1867 19.4116 26.5539 19.8242 26.774 20.3181C26.9941 20.8124 27.0551 21.3629 26.9496 21.8931L26.9464 21.9062L26.9439 21.9192C26.5632 23.5864 25.5391 25.0412 24.097 25.9661C22.6548 26.891 20.9076 27.2137 19.2372 26.8598L19.2102 26.8541L19.1833 26.8468C15.8196 25.9281 12.7588 24.1536 10.3002 21.6946C7.84147 19.2355 6.0691 16.1757 5.15446 12.8149L5.14711 12.7896L5.08339 12.4497C4.82854 10.8811 5.16219 9.26574 6.02447 7.91514C6.94428 6.47469 8.39294 5.44859 10.0559 5.06008L10.0788 5.05518ZM10.4783 6.93731C9.31135 7.21416 8.29326 7.93736 7.64604 8.95097C6.99979 9.96339 6.77648 11.1819 7.01947 12.3427C7.84885 15.368 9.44786 18.12 11.6612 20.3336C13.8755 22.5483 16.6312 24.1496 19.662 24.9826C20.826 25.2221 22.0467 24.9951 23.0587 24.3462C24.0726 23.6958 24.792 22.6758 25.0634 21.51C25.0897 21.3699 25.0731 21.2271 25.0168 21.1007C24.9595 20.9722 24.8637 20.865 24.7423 20.7935L24.7407 20.7927L21.8292 19.0691C21.5455 18.9015 21.2042 18.8479 20.8751 18.9237C20.5456 18.9997 20.2545 19.1995 20.0647 19.4816L20.0639 19.4832L18.7519 21.4209L18.011 21.0803C14.861 19.6316 12.338 17.1083 10.8916 13.9602L10.5485 13.2135L12.4944 11.9196C12.7773 11.7308 12.9772 11.4414 13.054 11.1141C13.1306 10.7869 13.0785 10.4472 12.9118 10.1641L11.2045 7.26407L11.202 7.25917C11.1312 7.1371 11.0234 7.0399 10.8933 6.98224C10.7652 6.92554 10.6202 6.9093 10.4783 6.93731Z" fill="black"/>
</svg>
