<svg width="20" height="4" viewBox="0 0 20 4" fill="none" xmlns="http://www.w3.org/2000/svg">
<path d="M2.00001 4C3.10459 4 4.00003 3.10457 4.00003 2C4.00003 0.89543 3.10459 0 2.00001 0C0.895437 0 0 0.89543 0 2C0 3.10457 0.895437 4 2.00001 4Z" fill="#FF423C"/>
<path d="M9.99998 4C11.1046 4 12 3.10457 12 2C12 0.89543 11.1046 0 9.99998 0C8.8954 0 7.99996 0.89543 7.99996 2C7.99996 3.10457 8.8954 4 9.99998 4Z" fill="#FF423C"/>
<path d="M18 4C19.1046 4 20 3.10457 20 2C20 0.89543 19.1046 0 18 0C16.8954 0 16 0.89543 16 2C16 3.10457 16.8954 4 18 4Z" fill="#FF423C"/>
</svg>
