<svg width="24" height="24" viewBox="0 0 24 24" fill="none" xmlns="http://www.w3.org/2000/svg">
<path d="M12.0109 10.5C11.1826 10.5 10.5091 11.1727 10.5091 12C10.5091 12.8273 11.1826 13.5 12.0109 13.5C12.8391 13.5 13.5127 12.8273 13.5127 12C13.5127 11.1727 12.8391 10.5 12.0109 10.5Z" fill="currentColor"/>
<path d="M19.4982 3C18.6699 3 17.9964 3.67275 17.9964 4.5C17.9964 5.32725 18.6699 6 19.4982 6C20.3264 6 21 5.32725 21 4.5C21 3.67275 20.3264 3 19.4982 3Z" fill="currentColor"/>
<path d="M14.0436 4.68225C13.75 4.389 13.2754 4.389 12.9818 4.68225C12.6882 4.9755 12.6882 5.4495 12.9818 5.74275L13.2694 6.03L10.6277 8.6685C10.1764 8.5665 9.71461 8.51475 9.2498 8.51475C5.80389 8.51475 3 11.3153 3 14.7578C3 18.2003 5.80389 21 9.2498 21C12.6957 21 15.4996 18.2003 15.4996 14.7578C15.4996 14.2845 15.4463 13.8158 15.3419 13.359L17.9746 10.7303L18.2382 10.9935C18.3846 11.139 18.5768 11.2125 18.7691 11.2125C18.9613 11.2125 19.1535 11.139 19.2999 10.9928C19.5936 10.6995 19.5936 10.2255 19.2999 9.93225L14.0436 4.68225ZM13.9738 12.6038C13.777 12.8003 13.7049 13.0898 13.7868 13.356C13.9272 13.8083 13.9978 14.2792 13.9978 14.757C13.9978 15.1252 13.9512 15.483 13.8716 15.8273C12.5125 15.7358 11.8036 15.282 11.0625 14.8012C10.1892 14.235 9.2866 13.65 7.48442 13.65C6.14105 13.65 5.18514 13.9935 4.52134 14.3715C4.71883 11.937 6.76205 10.0148 9.2498 10.0148C9.71912 10.0148 10.1854 10.0845 10.6345 10.2203C10.8988 10.2998 11.1871 10.23 11.3846 10.0335L14.3312 7.0905L16.9128 9.669L13.9738 12.6038Z" fill="currentColor"/>
</svg>
