<svg width="24" height="24" viewBox="0 0 24 24" fill="none" xmlns="http://www.w3.org/2000/svg">
<path d="M11.693 13.4693C11.5142 13.444 11.3606 13.3296 11.2854 13.1657C11.2227 13.029 11.2217 12.8736 11.2796 12.7378C11.2912 12.7108 11.3051 12.6845 11.3213 12.6593L16.7339 4.24331C16.8685 4.03404 17.131 3.94652 17.3646 4.03321C17.5982 4.11991 17.7398 4.35733 17.7048 4.60364L16.9355 10.0206L20.5444 10.5307C20.7232 10.556 20.8768 10.6704 20.9519 10.8343C21.0271 10.9981 21.0133 11.1888 20.9161 11.3407L15.5035 19.7567C15.3688 19.966 15.1063 20.0535 14.8727 19.9668C14.6392 19.8801 14.4976 19.6427 14.5326 19.3964L15.3018 13.9794L11.693 13.4693ZM15.923 17.1453L19.5774 11.4631L16.2619 10.9945C16.1227 10.9748 15.997 10.9006 15.9125 10.7885C15.828 10.6763 15.7916 10.5352 15.8114 10.3962L16.3142 6.85478L12.6599 12.5369L15.9754 13.0056C16.1146 13.0253 16.2403 13.0995 16.3248 13.2116C16.4092 13.3238 16.4456 13.4649 16.4259 13.6039L15.923 17.1453Z" fill="currentColor"/>
<path d="M3.94523 14.0156C3.96663 14.1867 4.07381 14.3353 4.22962 14.4097C4.3855 14.4842 4.56838 14.4744 4.71551 14.3836L6.97866 12.9862L9.11293 16.4276C9.2103 16.5846 9.38247 16.6727 9.55976 16.6673C9.61096 16.6657 9.66265 16.6564 9.71306 16.6386C9.93797 16.5593 10.0772 16.3343 10.0476 16.0982L9.10428 8.56488C9.08281 8.39372 8.97555 8.24514 8.81967 8.17079C8.66386 8.09643 8.48077 8.10636 8.33378 8.19711L6.0709 9.59624L3.93868 6.15527C3.81325 5.95283 3.56359 5.86483 3.33861 5.94406C3.11363 6.02329 2.97444 6.24821 3.00392 6.48441L3.94523 14.0156Z" fill="currentColor"/>
</svg>
