<svg width="32" height="32" viewBox="0 0 32 32" fill="none" xmlns="http://www.w3.org/2000/svg">
<path fill-rule="evenodd" clip-rule="evenodd" d="M23.6514 7.05317C23.832 6.99295 24.0271 6.98337 24.2123 7.02706C24.3973 7.07086 24.5667 7.16527 24.7011 7.29967L24.7022 7.30072C24.836 7.43528 24.9293 7.60476 24.9727 7.78955C25.0161 7.97445 25.0077 8.16818 24.9476 8.34835L18.9638 26.2991C18.9008 26.4874 18.784 26.6541 18.6286 26.7775C18.4792 26.8959 18.2995 26.9685 18.1105 26.9906L18.1115 26.9927C18.1079 26.9931 18.1036 26.9922 18.1001 26.9927C18.0957 26.9933 18.0908 26.9954 18.0865 26.9958L18.0854 26.9937C18.0415 26.9987 18.0035 27 17.9914 27C17.809 26.9999 17.6296 26.9514 17.4723 26.859C17.3545 26.7896 17.2517 26.6973 17.1705 26.5885L17.0963 26.4736L12.9633 19.0346L5.52663 14.9036C5.35319 14.8071 5.21093 14.6624 5.11824 14.4869C5.02554 14.3111 4.98601 14.1114 5.00439 13.9135C5.02283 13.7157 5.09828 13.527 5.22165 13.3714C5.34528 13.2157 5.51249 13.0989 5.70106 13.0361L23.6514 7.05317ZM14.9927 18.4643L17.7596 23.4456L21.6325 11.8182L14.9927 18.4643ZM8.5598 14.2456L13.5409 17.0104L20.1817 10.3695L8.5598 14.2456Z" fill="currentColor"/>
</svg>
