<svg width="24" height="24" viewBox="0 0 24 24" fill="none" xmlns="http://www.w3.org/2000/svg">
<path d="M17.1659 9.28728L20.4995 2.86719L14.4618 6.28038L12.9249 3.59666L10.6021 6.46459L7.95288 4.47306L8.61279 9.1355L3.50049 10.3672L8.54972 12.4869L6.64701 17.3211L11.2087 15.3664L12.9249 21.1328L14.5472 15.2976L17.9057 16.0109L17.0322 13.376L19.8356 12.7205L17.1659 9.28728ZM12.8617 12.5864C11.4085 12.5864 11.2263 12.3528 11.2263 10.8366C11.2263 9.32034 11.4085 9.08672 12.8617 9.08672C14.3149 9.08672 14.4972 9.32031 14.4972 10.8366C14.4972 12.3529 14.3149 12.5864 12.8617 12.5864Z" fill="currentColor"/>
</svg>
