<svg width="22" height="22" viewBox="0 0 22 22" fill="none" xmlns="http://www.w3.org/2000/svg">
<path d="M3.18351 3.2531C-1.08424 7.56724 -1.06105 14.5487 3.2531 18.8165C7.56724 23.0842 14.5487 23.061 18.8165 18.7469C23.0842 14.4328 23.061 7.45127 18.7469 3.18351C14.4328 -1.08424 7.45127 -1.06105 3.18351 3.2531ZM16.3579 8.88932L10.3738 14.943C9.86348 15.4533 9.02848 15.4533 8.51821 14.943L7.59043 14.0153L5.64211 12.0901C5.13184 11.5799 5.13184 10.7449 5.64211 10.2346C6.15239 9.72431 6.98738 9.72431 7.49766 10.2346L9.44598 12.1597L14.5023 7.05697C15.0126 6.54669 15.8476 6.54669 16.3579 7.05697C16.8682 7.54405 16.8682 8.37904 16.3579 8.88932Z" fill="#FAFAFD"/>
</svg>
