<svg width="24" height="24" viewBox="0 0 24 24" fill="none" xmlns="http://www.w3.org/2000/svg">
<path d="M19.3201 11.32H19.2C18.4067 11.32 17.6934 10.82 17.4334 10.0733C17.3667 9.88664 17.2934 9.70667 17.2067 9.53333C16.8667 8.81331 17.0133 7.95996 17.5734 7.39331L17.6667 7.30664C17.9334 7.04 17.9334 6.60665 17.6667 6.33997C17.4001 6.07332 16.96 6.07332 16.7 6.33997L16.6068 6.42664C16.0467 6.99333 15.1934 7.13997 14.4734 6.79997C14.2934 6.7133 14.1134 6.63997 13.9334 6.57332C13.18 6.30664 12.6867 5.59998 12.6867 4.80664V4.67997C12.6867 4.30664 12.38 4 12 4C11.6267 4 11.3201 4.30664 11.3201 4.67997V4.79997C11.3201 5.62 10.7801 6.31331 10.0133 6.59998C9.87337 6.64665 9.7334 6.70667 9.59342 6.77332C8.85335 7.11332 7.98006 7.00663 7.40006 6.42664L7.3134 6.33997C7.04671 6.07332 6.62004 6.07332 6.34668 6.33997C6.08008 6.60665 6.08008 7.03332 6.34668 7.30664L6.43343 7.39331C7.00667 7.97331 7.12004 8.83997 6.77344 9.58C6.70671 9.71997 6.64673 9.86666 6.59342 10.0133C6.3134 10.78 5.62004 11.32 4.80005 11.32H4.68669C4.30672 11.32 4 11.6266 4 12C4 12.3733 4.30672 12.68 4.68669 12.68H4.80672C5.6001 12.68 6.30672 13.18 6.57341 13.9266C6.64006 14.1133 6.71338 14.2933 6.80005 14.4733C7.14006 15.1866 6.99333 16.04 6.43343 16.6066L6.34668 16.6866C6.08008 16.9533 6.08008 17.3933 6.34668 17.6533C6.48006 17.7867 6.6534 17.8533 6.83333 17.8533C7.00667 17.8533 7.18001 17.7867 7.3134 17.6533L7.40674 17.5667C7.96672 17 8.82007 16.8533 9.54004 17.2C9.71338 17.28 9.89339 17.3533 10.0734 17.42C10.8201 17.6866 11.3201 18.3933 11.3201 19.1866V19.32C11.3201 19.6933 11.6267 20 12 20C12.38 20 12.6867 19.6933 12.6867 19.32V19.1933C12.6867 18.3933 13.18 17.6866 13.9334 17.42C14.1134 17.36 14.2934 17.28 14.4734 17.2C15.1934 16.8533 16.0467 17.0066 16.6068 17.5667L16.7 17.6533C16.8333 17.7867 17.0067 17.8533 17.18 17.8533C17.36 17.8533 17.5267 17.7867 17.6667 17.6533C17.9334 17.3933 17.9334 16.9533 17.6667 16.6866L17.5801 16.6C17 16.0267 16.8934 15.1533 17.2334 14.4067C17.3 14.2733 17.36 14.1266 17.4067 13.9867C17.6934 13.22 18.3867 12.68 19.2067 12.68H19.3201C19.6934 12.68 20 12.3733 20 12C20 11.6266 19.6934 11.32 19.3201 11.32ZM10.0067 11.46C9.19336 11.46 8.52669 10.7933 8.52669 9.97998C8.52669 9.15999 9.19336 8.5 10.0067 8.5C10.8267 8.5 11.4867 9.15999 11.4867 9.97998C11.4867 10.7933 10.8267 11.46 10.0067 11.46ZM11.4867 16.18C10.8734 16.18 10.3667 15.6733 10.3667 15.06C10.3667 14.44 10.8734 13.9467 11.4867 13.9467C12.1068 13.9467 12.6068 14.44 12.6068 15.06C12.6068 15.6733 12.1068 16.18 11.4867 16.18ZM14.84 11.9933C14.3467 11.9933 13.9401 11.5933 13.9401 11.1C13.9401 10.6066 14.3467 10.2067 14.84 10.2067C15.3333 10.2067 15.7334 10.6066 15.7334 11.1C15.7334 11.5933 15.3333 11.9933 14.84 11.9933Z" fill="currentColor"/>
</svg>
