<svg width="24" height="24" viewBox="0 0 24 24" fill="none" xmlns="http://www.w3.org/2000/svg">
<path d="M5.48144 11.1873L11.1873 5.48144L10.8876 5.18173C10.131 4.42508 9.10475 4 8.03468 4C6.96462 4 5.93838 4.42508 5.18173 5.18173C4.42508 5.93838 4 6.96462 4 8.03468C4 9.10475 4.42508 10.131 5.18173 10.8876L5.48144 11.1873Z" fill="currentColor"/>
<path d="M18.5186 12.8127L12.8127 18.5186L13.1124 18.8183C13.869 19.5749 14.8953 20 15.9653 20C17.0354 20 18.0616 19.5749 18.8183 18.8183C19.5749 18.0616 20 17.0354 20 15.9653C20 14.8953 19.5749 13.869 18.8183 13.1124L18.5186 12.8127Z" fill="currentColor"/>
<path d="M19.9986 8.03584C19.9986 7.23797 19.762 6.45803 19.3187 5.79463C18.8754 5.13124 18.2454 4.61417 17.5082 4.30881C16.7711 4.00345 15.96 3.92351 15.1775 4.07909C14.3949 4.23467 13.6761 4.61879 13.1118 5.18288L5.18288 13.1118C4.42623 13.8684 4.00115 14.8947 4.00115 15.9647C4.00115 17.0348 4.42623 18.061 5.18288 18.8177C5.93953 19.5743 6.96577 19.9994 8.03584 19.9994C9.1059 19.9994 10.1321 19.5743 10.8888 18.8177L18.8171 10.8882C19.1929 10.5145 19.4907 10.07 19.6936 9.58036C19.8964 9.09075 20.0001 8.56578 19.9986 8.03584ZM10.777 12.4075C10.6964 12.4881 10.5937 12.543 10.4819 12.5653C10.3701 12.5875 10.2542 12.5761 10.1488 12.5325C10.0435 12.4889 9.9535 12.415 9.89016 12.3202C9.82682 12.2254 9.79302 12.114 9.79302 12C9.79302 11.886 9.82682 11.7746 9.89016 11.6798C9.9535 11.585 10.0435 11.5111 10.1488 11.4675C10.2542 11.4239 10.3701 11.4125 10.4819 11.4347C10.5937 11.457 10.6964 11.5119 10.777 11.5925C10.8851 11.7005 10.9459 11.8471 10.946 11.9999C10.9461 12.1527 10.8849 12.2993 10.777 12.4075ZM12.4069 14.038C12.3263 14.1185 12.2236 14.1734 12.1118 14.1955C12 14.2177 11.8842 14.2063 11.7789 14.1626C11.6736 14.119 11.5836 14.0451 11.5203 13.9504C11.457 13.8556 11.4232 13.7442 11.4232 13.6302C11.4232 13.5163 11.457 13.4048 11.5203 13.3101C11.5836 13.2153 11.6736 13.1414 11.7789 13.0978C11.8842 13.0542 12 13.0427 12.1118 13.0649C12.2236 13.0871 12.3263 13.1419 12.4069 13.2224C12.4605 13.2759 12.5031 13.3395 12.5321 13.4094C12.5612 13.4794 12.5762 13.5544 12.5762 13.6301C12.5763 13.7058 12.5614 13.7808 12.5325 13.8508C12.5035 13.9208 12.461 13.9844 12.4075 14.038H12.4069ZM12.4069 10.7776C12.3263 10.8581 12.2236 10.9129 12.1118 10.9351C12 10.9573 11.8842 10.9458 11.7789 10.9022C11.6736 10.8586 11.5836 10.7847 11.5203 10.6899C11.457 10.5952 11.4232 10.4837 11.4232 10.3698C11.4232 10.2558 11.457 10.1444 11.5203 10.0496C11.5836 9.95488 11.6736 9.881 11.7789 9.83736C11.8842 9.79372 12 9.78227 12.1118 9.80446C12.2236 9.82664 12.3263 9.88147 12.4069 9.96201C12.4605 10.0155 12.5031 10.079 12.5321 10.149C12.5612 10.2189 12.5762 10.2939 12.5762 10.3697C12.5763 10.4454 12.5614 10.5204 12.5325 10.5904C12.5035 10.6604 12.461 10.724 12.4075 10.7776H12.4069ZM14.0374 12.4075C13.9568 12.4881 13.8541 12.543 13.7423 12.5653C13.6305 12.5875 13.5146 12.5761 13.4093 12.5325C13.304 12.4889 13.2139 12.415 13.1506 12.3202C13.0873 12.2254 13.0535 12.114 13.0535 12C13.0535 11.886 13.0873 11.7746 13.1506 11.6798C13.2139 11.585 13.304 11.5111 13.4093 11.4675C13.5146 11.4239 13.6305 11.4125 13.7423 11.4347C13.8541 11.457 13.9568 11.5119 14.0374 11.5925C14.1455 11.7005 14.2063 11.8471 14.2064 11.9999C14.2066 12.1527 14.1454 12.2993 14.0374 12.4075Z" fill="currentColor"/>
</svg>
